<svg width="380" height="180" viewBox="0 0 380 180" fill="none" xmlns="http://www.w3.org/2000/svg">
<path d="M373.233 178.139H110.431C108.637 178.137 106.917 177.424 105.648 176.156C104.38 174.888 103.666 173.169 103.664 171.375V9.38522C103.666 8.07142 104.188 6.81184 105.118 5.88282C106.047 4.9538 107.307 4.4312 108.621 4.42969H374.957C376.294 4.43121 377.576 4.96283 378.521 5.90791C379.466 6.85299 379.998 8.13436 380 9.47089V171.375C379.998 173.169 379.284 174.888 378.016 176.156C376.747 177.424 375.027 178.137 373.233 178.139V178.139Z" fill="#F2F2F2"/>
<path d="M364.736 169.599H119.811C116.221 169.599 113.3 166.865 113.3 163.504V22.4413C113.3 19.9488 115.464 17.9209 118.125 17.9209H366.343C369.047 17.9209 371.248 19.9822 371.248 22.5157V163.504C371.248 166.865 368.327 169.599 364.736 169.599Z" fill="white"/>
<path d="M379.906 10.2281H103.569V6.78445C103.572 4.98518 104.288 3.2604 105.562 1.98851C106.835 0.716626 108.561 0.00149193 110.36 0H373.115C374.915 0.00147676 376.64 0.716604 377.914 1.9885C379.187 3.26039 379.903 4.98517 379.906 6.78445V10.2281Z" fill="#3F3D56"/>
<path d="M115.911 6.88032C116.881 6.88032 117.667 6.09415 117.667 5.12436C117.667 4.15458 116.881 3.36841 115.911 3.36841C114.941 3.36841 114.154 4.15458 114.154 5.12436C114.154 6.09415 114.941 6.88032 115.911 6.88032Z" fill="white"/>
<path d="M122.579 6.88032C123.549 6.88032 124.335 6.09415 124.335 5.12436C124.335 4.15458 123.549 3.36841 122.579 3.36841C121.609 3.36841 120.822 4.15458 120.822 5.12436C120.822 6.09415 121.609 6.88032 122.579 6.88032Z" fill="white"/>
<path d="M129.247 6.88032C130.217 6.88032 131.003 6.09415 131.003 5.12436C131.003 4.15458 130.217 3.36841 129.247 3.36841C128.277 3.36841 127.49 4.15458 127.49 5.12436C127.49 6.09415 128.277 6.88032 129.247 6.88032Z" fill="white"/>
<path d="M236.463 48.7643H188.561C187.847 48.7643 187.162 48.4807 186.657 47.9759C186.152 47.4711 185.868 46.7865 185.868 46.0726C185.868 45.3587 186.152 44.6741 186.657 44.1693C187.162 43.6645 187.847 43.3809 188.561 43.3809H236.463C237.177 43.3809 237.862 43.6645 238.367 44.1693C238.872 44.6741 239.156 45.3587 239.156 46.0726C239.156 46.7865 238.872 47.4711 238.367 47.9759C237.862 48.4807 237.177 48.7643 236.463 48.7643V48.7643Z" fill="#CCCCCC"/>
<path d="M295.986 48.7643H248.084C247.37 48.7643 246.685 48.4807 246.18 47.9759C245.675 47.4711 245.392 46.7865 245.392 46.0726C245.392 45.3587 245.675 44.6741 246.18 44.1693C246.685 43.6645 247.37 43.3809 248.084 43.3809H295.986C296.701 43.3809 297.385 43.6645 297.89 44.1693C298.395 44.6741 298.679 45.3587 298.679 46.0726C298.679 46.7865 298.395 47.4711 297.89 47.9759C297.385 48.4807 296.701 48.7643 295.986 48.7643V48.7643Z" fill="#CCCCCC"/>
<path d="M295.986 58.9648H212.654C211.94 58.9648 211.255 58.6812 210.75 58.1764C210.245 57.6716 209.961 56.9869 209.961 56.273C209.961 55.5591 210.245 54.8745 210.75 54.3697C211.255 53.8649 211.94 53.5813 212.654 53.5813H295.986C296.7 53.5813 297.385 53.8649 297.89 54.3697C298.395 54.8745 298.679 55.5591 298.679 56.273C298.679 56.9869 298.395 57.6716 297.89 58.1764C297.385 58.6812 296.7 58.9648 295.986 58.9648Z" fill="#CCCCCC"/>
<path d="M236.464 38.4225H188.561C187.848 38.4217 187.164 38.1377 186.66 37.633C186.155 37.1283 185.872 36.4441 185.872 35.7308C185.872 35.0175 186.155 34.3333 186.66 33.8286C187.164 33.3239 187.848 33.0399 188.561 33.0391H236.464C236.817 33.0386 237.168 33.1079 237.495 33.243C237.822 33.3781 238.119 33.5763 238.37 33.8263C238.62 34.0763 238.819 34.3732 238.954 34.6999C239.09 35.0267 239.16 35.377 239.16 35.7308C239.16 36.0846 239.09 36.4349 238.954 36.7616C238.819 37.0884 238.62 37.3853 238.37 37.6353C238.119 37.8853 237.822 38.0835 237.495 38.2186C237.168 38.3537 236.817 38.423 236.464 38.4225V38.4225Z" fill="#CCCCCC"/>
<path d="M262.823 38.5641H249.218C248.504 38.5641 247.819 38.2805 247.314 37.7757C246.809 37.2709 246.525 36.5863 246.525 35.8724C246.525 35.1585 246.809 34.4739 247.314 33.9691C247.819 33.4643 248.504 33.1807 249.218 33.1807H262.823C263.538 33.1807 264.222 33.4643 264.727 33.9691C265.232 34.4739 265.516 35.1585 265.516 35.8724C265.516 36.5863 265.232 37.2709 264.727 37.7757C264.222 38.2805 263.538 38.5641 262.823 38.5641Z" fill="#CCCCCC"/>
<path d="M202.167 58.9648H188.561C187.848 58.9639 187.164 58.6799 186.66 58.1752C186.155 57.6705 185.872 56.9864 185.872 56.273C185.872 55.5597 186.155 54.8756 186.66 54.3709C187.164 53.8662 187.848 53.5822 188.561 53.5813H202.167C202.521 53.5809 202.871 53.6502 203.198 53.7852C203.525 53.9203 203.823 54.1185 204.073 54.3685C204.323 54.6185 204.522 54.9154 204.658 55.2422C204.793 55.569 204.863 55.9193 204.863 56.273C204.863 56.6268 204.793 56.9771 204.658 57.3039C204.522 57.6307 204.323 57.9276 204.073 58.1775C203.823 58.4275 203.525 58.6257 203.198 58.7608C202.871 58.8959 202.521 58.9652 202.167 58.9648Z" fill="#CCCCCC"/>
<path d="M236.463 144.281H188.561C187.847 144.281 187.162 143.997 186.657 143.493C186.152 142.988 185.868 142.303 185.868 141.589C185.868 140.875 186.152 140.191 186.657 139.686C187.162 139.181 187.847 138.897 188.561 138.897H236.463C236.817 138.897 237.167 138.967 237.493 139.102C237.82 139.238 238.117 139.436 238.367 139.686C238.617 139.936 238.815 140.233 238.951 140.559C239.086 140.886 239.156 141.236 239.156 141.589C239.156 141.943 239.086 142.293 238.951 142.619C238.815 142.946 238.617 143.243 238.367 143.493C238.117 143.742 237.82 143.941 237.493 144.076C237.167 144.211 236.817 144.281 236.463 144.281V144.281Z" fill="#CCCCCC"/>
<path d="M295.986 144.281H248.084C247.37 144.281 246.685 143.997 246.18 143.493C245.675 142.988 245.392 142.303 245.392 141.589C245.392 140.875 245.675 140.191 246.18 139.686C246.685 139.181 247.37 138.897 248.084 138.897H295.986C296.34 138.897 296.69 138.967 297.017 139.102C297.344 139.238 297.64 139.436 297.89 139.686C298.14 139.936 298.339 140.233 298.474 140.559C298.609 140.886 298.679 141.236 298.679 141.589C298.679 141.943 298.609 142.293 298.474 142.619C298.339 142.946 298.14 143.243 297.89 143.493C297.64 143.742 297.344 143.941 297.017 144.076C296.69 144.211 296.34 144.281 295.986 144.281V144.281Z" fill="#CCCCCC"/>
<path d="M295.986 154.481H212.654C211.94 154.481 211.255 154.198 210.75 153.693C210.245 153.188 209.961 152.503 209.961 151.789C209.961 151.075 210.245 150.391 210.75 149.886C211.255 149.381 211.94 149.098 212.654 149.098H295.986C296.34 149.097 296.691 149.167 297.018 149.302C297.345 149.437 297.642 149.635 297.892 149.885C298.143 150.135 298.341 150.432 298.477 150.759C298.613 151.085 298.682 151.436 298.682 151.789C298.682 152.143 298.613 152.493 298.477 152.82C298.341 153.147 298.143 153.444 297.892 153.694C297.642 153.944 297.345 154.142 297.018 154.277C296.691 154.412 296.34 154.482 295.986 154.481Z" fill="#CCCCCC"/>
<path d="M236.463 133.939H188.561C187.847 133.939 187.162 133.656 186.657 133.151C186.152 132.646 185.868 131.961 185.868 131.247C185.868 130.534 186.152 129.849 186.657 129.344C187.162 128.839 187.847 128.556 188.561 128.556H236.463C237.177 128.556 237.862 128.839 238.367 129.344C238.872 129.849 239.156 130.534 239.156 131.247C239.156 131.961 238.872 132.646 238.367 133.151C237.862 133.656 237.177 133.939 236.463 133.939Z" fill="#CCCCCC"/>
<path d="M262.823 134.081H249.218C248.504 134.081 247.819 133.797 247.314 133.292C246.809 132.788 246.525 132.103 246.525 131.389C246.525 130.675 246.809 129.99 247.314 129.486C247.819 128.981 248.504 128.697 249.218 128.697H262.823C263.538 128.697 264.222 128.981 264.727 129.486C265.232 129.99 265.516 130.675 265.516 131.389C265.516 132.103 265.232 132.788 264.727 133.292C264.222 133.797 263.538 134.081 262.823 134.081V134.081Z" fill="#CCCCCC"/>
<path d="M202.166 154.481H188.561C187.847 154.481 187.162 154.198 186.657 153.693C186.152 153.188 185.868 152.503 185.868 151.789C185.868 151.075 186.152 150.391 186.657 149.886C187.162 149.381 187.847 149.098 188.561 149.098H202.166C202.52 149.097 202.871 149.167 203.198 149.302C203.525 149.437 203.822 149.635 204.072 149.885C204.323 150.135 204.521 150.432 204.657 150.759C204.792 151.085 204.862 151.436 204.862 151.789C204.862 152.143 204.792 152.493 204.657 152.82C204.521 153.147 204.323 153.444 204.072 153.694C203.822 153.944 203.525 154.142 203.198 154.277C202.871 154.412 202.52 154.482 202.166 154.481Z" fill="#CCCCCC"/>
<path d="M223.953 115.383C222.936 115.385 221.96 114.986 221.237 114.272L203.23 96.4973C202.877 96.1483 202.596 95.7327 202.404 95.2744C202.213 94.8162 202.114 94.3245 202.114 93.8279C202.114 93.3312 202.213 92.8395 202.404 92.3813C202.596 91.9231 202.877 91.5074 203.23 91.1585L221.164 73.4554C221.911 72.7214 222.918 72.3117 223.965 72.315C225.013 72.3183 226.017 72.7344 226.759 73.473C227.502 74.2176 227.92 75.2265 227.92 76.2784C227.92 77.3302 227.502 78.3391 226.759 79.0838L213.433 92.4055C213.018 92.8215 212.784 93.3852 212.784 93.9728C212.784 94.5605 213.018 95.1241 213.433 95.5401L226.687 108.79C227.228 109.329 227.597 110.018 227.746 110.768C227.896 111.517 227.819 112.294 227.527 113.001C227.234 113.707 226.738 114.31 226.102 114.734C225.466 115.158 224.718 115.384 223.953 115.383V115.383Z" fill="#139DDA"/>
<path d="M252.645 115.383C251.881 115.384 251.133 115.158 250.497 114.734C249.861 114.31 249.365 113.706 249.072 113C248.779 112.294 248.703 111.517 248.852 110.767C249.002 110.018 249.37 109.329 249.911 108.789L263.166 95.5399C263.581 95.1239 263.814 94.5602 263.814 93.9726C263.814 93.385 263.581 92.8213 263.166 92.4053L249.839 79.0835C249.471 78.7151 249.178 78.2778 248.979 77.7964C248.779 77.3151 248.677 76.7991 248.677 76.2781C248.677 75.7571 248.779 75.2412 248.979 74.7599C249.178 74.2785 249.471 73.8412 249.839 73.4728V73.4728C250.582 72.7341 251.586 72.318 252.633 72.3147C253.681 72.3114 254.687 72.7212 255.434 73.4552L273.368 91.1582C273.722 91.5072 274.002 91.9228 274.194 92.3811C274.386 92.8393 274.484 93.331 274.484 93.8276C274.484 94.3243 274.386 94.816 274.194 95.2742C274.002 95.7324 273.722 96.1481 273.368 96.4971L255.362 114.272C254.638 114.986 253.662 115.385 252.645 115.383Z" fill="#139DDA"/>
</svg>
