<svg width="50" height="50" viewBox="0 0 50 50" fill="none" xmlns="http://www.w3.org/2000/svg">
<path d="M3 3C1.34766 3 0 4.34766 0 6V9H50V6C50 4.34766 48.6523 3 47 3H3ZM0 11V47H50V11H0ZM29 15C29.1289 15 29.2461 15.0117 29.375 15.0625C29.8867 15.2734 30.1484 15.8633 29.9375 16.375L20.9375 38.375C20.7773 38.7617 20.3945 39 20 39C19.875 39 19.75 38.9883 19.625 38.9375C19.1133 38.7266 18.8516 38.1367 19.0625 37.625L28.0625 15.625C28.2188 15.2422 28.6094 15.0039 29 15ZM15.875 21C16.2617 20.9531 16.668 21.1406 16.875 21.5C17.1484 21.9805 16.9805 22.6016 16.5 22.875L11.0312 26L16.5 29.125C16.9805 29.3984 17.1484 30.0195 16.875 30.5C16.6914 30.8242 16.3477 31 16 31C15.832 31 15.6562 30.9648 15.5 30.875L8.5 26.875C8.1875 26.6953 8 26.3594 8 26C8 25.6406 8.1875 25.3047 8.5 25.125L15.5 21.125C15.6211 21.0586 15.7461 21.0156 15.875 21ZM34.125 21C34.2539 21.0156 34.3789 21.0547 34.5 21.125L41.5 25.125C41.8125 25.3047 42 25.6406 42 26C42 26.3594 41.8125 26.6953 41.5 26.875L34.5 30.875C34.3438 30.9648 34.168 31 34 31C33.6523 31 33.3086 30.8242 33.125 30.5C32.8516 30.0195 33.0195 29.3984 33.5 29.125L38.9688 26L33.5 22.875C33.0195 22.6016 32.8516 21.9805 33.125 21.5C33.3281 21.1406 33.7383 20.9531 34.125 21Z" fill="#146CE0"/>
</svg>
