<svg width="331" height="56" viewBox="0 0 331 56" fill="none" xmlns="http://www.w3.org/2000/svg">
<path d="M17.92 55.0949C11.8133 55.0949 7.29333 53.6416 4.36 50.7349C1.45333 47.8016 0 43.2816 0 37.1749V18.7749C0 12.6149 1.45333 8.08161 4.36 5.17495C7.26667 2.24161 11.76 0.801612 17.84 0.854944H27.52C32.5333 0.854944 36.36 1.89494 39 3.97494C41.64 6.02828 43.1733 9.28161 43.6 13.7349C43.76 14.8549 43.5467 15.7083 42.96 16.2949C42.3733 16.8816 41.52 17.1749 40.4 17.1749C38.3733 17.1749 37.2 16.0549 36.88 13.8149C36.6133 11.3616 35.76 9.70828 34.32 8.85495C32.9067 8.00161 30.64 7.57494 27.52 7.57494H17.84C15.0133 7.54828 12.7867 7.86828 11.16 8.53495C9.56 9.20161 8.41333 10.3616 7.72 12.0149C7.05333 13.6416 6.72 15.8949 6.72 18.7749V37.1749C6.72 40.0283 7.05333 42.2683 7.72 43.8949C8.41333 45.5216 9.57333 46.6816 11.2 47.3749C12.8267 48.0416 15.0667 48.3749 17.92 48.3749H27.52C30 48.3749 31.9333 48.1083 33.32 47.5749C34.7333 47.0149 35.72 46.0416 36.28 44.6549C36.84 43.2683 37.12 41.3083 37.12 38.7749V35.0149L30.88 34.9349C28.64 34.9349 27.52 33.8149 27.52 31.5749C27.52 29.3349 28.64 28.2149 30.88 28.2149L40.48 28.2949C42.72 28.2949 43.84 29.4149 43.84 31.6549V38.7749C43.84 44.4549 42.52 48.6016 39.88 51.2149C37.24 53.8016 33.12 55.0949 27.52 55.0949H17.92Z" fill="white"/>
<path d="M71.3394 55.0949C66.7794 55.0949 63.2194 54.1749 60.6594 52.3349C58.126 50.4949 56.5394 47.6549 55.8994 43.8149C55.7927 42.6416 56.0327 41.7616 56.6194 41.1749C57.206 40.5883 58.0594 40.2949 59.1794 40.2949C60.2994 40.2949 61.1127 40.5616 61.6194 41.0949C62.1527 41.6283 62.5127 42.4549 62.6994 43.5749C63.0994 45.4149 63.9527 46.6816 65.2594 47.3749C66.5927 48.0416 68.6194 48.3749 71.3394 48.3749H82.8594C86.2994 48.3749 88.6327 47.7616 89.8594 46.5349C91.1127 45.2816 91.7394 42.9616 91.7394 39.5749C91.7394 36.1349 91.0994 33.7883 89.8194 32.5349C88.5394 31.2549 86.2194 30.6149 82.8594 30.6149H72.9394C67.8994 30.6149 64.1527 29.3883 61.6994 26.9349C59.2727 24.4549 58.0594 20.6949 58.0594 15.6549C58.0594 10.6416 59.2594 6.92161 61.6594 4.49494C64.086 2.06828 67.8194 0.854944 72.8594 0.854944H82.3794C86.6194 0.854944 89.9394 1.72161 92.3394 3.45495C94.766 5.18828 96.2994 7.84161 96.9394 11.4149C97.0994 12.5616 96.886 13.4416 96.2994 14.0549C95.7127 14.6416 94.8327 14.9349 93.6594 14.9349C92.5927 14.9349 91.7927 14.6549 91.2594 14.0949C90.726 13.5349 90.3794 12.7216 90.2194 11.6549C89.7927 10.0816 88.9794 9.01494 87.7794 8.45495C86.5794 7.86828 84.7794 7.57494 82.3794 7.57494H72.8594C69.6594 7.57494 67.5127 8.14828 66.4194 9.29494C65.326 10.4149 64.7794 12.5349 64.7794 15.6549C64.7794 18.8016 65.3394 20.9616 66.4594 22.1349C67.5794 23.3083 69.7394 23.8949 72.9394 23.8949H82.8594C88.1127 23.8949 92.0194 25.1749 94.5794 27.7349C97.166 30.2949 98.4594 34.2416 98.4594 39.5749C98.4594 44.8816 97.1794 48.8016 94.6194 51.3349C92.0594 53.8416 88.1394 55.0949 82.8594 55.0949H71.3394Z" fill="white"/>
<path d="M126.73 55.0949C122.17 55.0949 118.61 54.1749 116.05 52.3349C113.517 50.4949 111.93 47.6549 111.29 43.8149C111.183 42.6416 111.423 41.7616 112.01 41.1749C112.597 40.5883 113.45 40.2949 114.57 40.2949C115.69 40.2949 116.503 40.5616 117.01 41.0949C117.543 41.6283 117.903 42.4549 118.09 43.5749C118.49 45.4149 119.343 46.6816 120.65 47.3749C121.983 48.0416 124.01 48.3749 126.73 48.3749H138.25C141.69 48.3749 144.023 47.7616 145.25 46.5349C146.503 45.2816 147.13 42.9616 147.13 39.5749C147.13 36.1349 146.49 33.7883 145.21 32.5349C143.93 31.2549 141.61 30.6149 138.25 30.6149H128.33C123.29 30.6149 119.543 29.3883 117.09 26.9349C114.663 24.4549 113.45 20.6949 113.45 15.6549C113.45 10.6416 114.65 6.92161 117.05 4.49494C119.477 2.06828 123.21 0.854944 128.25 0.854944H137.77C142.01 0.854944 145.33 1.72161 147.73 3.45495C150.157 5.18828 151.69 7.84161 152.33 11.4149C152.49 12.5616 152.277 13.4416 151.69 14.0549C151.103 14.6416 150.223 14.9349 149.05 14.9349C147.983 14.9349 147.183 14.6549 146.65 14.0949C146.117 13.5349 145.77 12.7216 145.61 11.6549C145.183 10.0816 144.37 9.01494 143.17 8.45495C141.97 7.86828 140.17 7.57494 137.77 7.57494H128.25C125.05 7.57494 122.903 8.14828 121.81 9.29494C120.717 10.4149 120.17 12.5349 120.17 15.6549C120.17 18.8016 120.73 20.9616 121.85 22.1349C122.97 23.3083 125.13 23.8949 128.33 23.8949H138.25C143.503 23.8949 147.41 25.1749 149.97 27.7349C152.557 30.2949 153.85 34.2416 153.85 39.5749C153.85 44.8816 152.57 48.8016 150.01 51.3349C147.45 53.8416 143.53 55.0949 138.25 55.0949H126.73Z" fill="white"/>
<path d="M197.077 55.0949C194.837 55.0949 193.717 53.9749 193.717 51.7349V4.21494C193.717 1.97494 194.837 0.854944 197.077 0.854944C199.317 0.854944 200.437 1.97494 200.437 4.21494V48.3749H222.597C224.837 48.3749 225.957 49.4949 225.957 51.7349C225.957 53.9749 224.837 55.0949 222.597 55.0949H197.077Z" fill="white"/>
<path d="M234.438 54.7749C232.305 53.9483 231.665 52.4816 232.518 50.3749L251.558 3.49494C252.358 1.73494 253.611 0.854944 255.318 0.854944H255.478C257.211 0.934945 258.385 1.81494 258.998 3.49494L278.358 50.3749C279.211 52.4816 278.598 53.9483 276.518 54.7749C274.411 55.6016 272.945 54.9883 272.118 52.9349L267.798 42.4549H242.878L238.758 52.9349C237.931 55.0149 236.491 55.6283 234.438 54.7749ZM245.518 35.7349H265.038L255.078 11.4949L245.518 35.7349Z" fill="white"/>
<path d="M293.639 55.0949C291.399 55.0949 290.279 53.9749 290.279 51.7349V4.21494C290.279 1.97494 291.399 0.854944 293.639 0.854944H314.519C318.759 0.854944 322.013 1.97494 324.279 4.21494C326.573 6.45494 327.719 9.65494 327.719 13.8149V15.9749C327.719 19.5749 326.586 22.3616 324.319 24.3349C328.559 26.7083 330.679 31.0416 330.679 37.3349V40.0549C330.679 44.9616 329.373 48.6949 326.759 51.2549C324.173 53.8149 320.439 55.0949 315.559 55.0949H293.639ZM296.999 48.3749H315.559C318.573 48.3749 320.719 47.7349 321.999 46.4549C323.306 45.1483 323.959 43.0149 323.959 40.0549V37.3349C323.959 34.3749 323.333 32.2683 322.079 31.0149C320.826 29.7349 318.653 29.0949 315.559 29.0949H296.999V48.3749ZM296.999 22.3749H315.959C317.906 22.3749 319.226 21.7749 319.919 20.5749C320.639 19.3749 320.999 17.8416 320.999 15.9749V13.8149C320.999 11.4949 320.519 9.88161 319.559 8.97495C318.599 8.04161 316.919 7.57494 314.519 7.57494H296.999V22.3749Z" fill="white"/>
</svg>
