<svg width="223" height="228" viewBox="0 0 223 228" fill="none" xmlns="http://www.w3.org/2000/svg">
<g clip-path="url(#clip0_24_36)">
<path d="M145.54 0.838517L73.3378 21.7064C62.1082 24.9519 55.6385 36.6775 58.8872 47.8962L106.619 212.725C109.868 223.944 121.605 230.407 132.834 227.162L205.036 206.294C216.266 203.048 222.735 191.323 219.487 180.104L171.755 15.2751C168.506 4.0564 156.769 -2.40706 145.54 0.838517Z" fill="#3F3D56"/>
<path d="M146.091 2.74103L136.649 5.46995L137.592 8.72861C138.02 10.2036 137.843 11.7877 137.101 13.1323C136.359 14.477 135.113 15.4722 133.636 15.8989L91.4518 28.0911C89.9754 28.5178 88.3897 28.3411 87.0437 27.5999C85.6978 26.8586 84.7016 25.6136 84.2745 24.1386L83.3308 20.8799L73.8889 23.6089C69.0046 25.0265 64.8826 28.3219 62.4272 32.7719C59.9718 37.2219 59.3836 42.4633 60.7916 47.3461L108.523 212.175C109.942 217.054 113.241 221.172 117.695 223.625C122.149 226.078 127.396 226.666 132.283 225.259L204.485 204.392C209.37 202.974 213.492 199.679 215.947 195.229C218.402 190.778 218.991 185.537 217.583 180.654L169.851 15.8256C168.432 10.9461 165.133 6.82809 160.679 4.3751C156.225 1.92211 150.978 1.33445 146.091 2.74103Z" fill="white"/>
<path d="M64.5547 69.4122C64.1874 69.5179 63.7932 69.4737 63.4585 69.2894C63.1237 69.105 62.8759 68.7956 62.7692 68.4289L61.9679 65.6618C61.9153 65.4801 61.899 65.2899 61.92 65.1019C61.941 64.9139 61.9988 64.7319 62.0902 64.5663C62.1816 64.4006 62.3048 64.2546 62.4527 64.1365C62.6006 64.0184 62.7703 63.9306 62.9522 63.878C63.134 63.8255 63.3245 63.8092 63.5126 63.8302C63.7008 63.8511 63.883 63.9089 64.0488 64.0002C64.2146 64.0915 64.3607 64.2146 64.4789 64.3623C64.5971 64.5101 64.6851 64.6796 64.7377 64.8613L65.539 67.6284C65.6448 67.9953 65.6006 68.3892 65.4161 68.7236C65.2315 69.058 64.9218 69.3056 64.5547 69.4122Z" fill="#3F3D56"/>
<path d="M68.6633 83.6008C68.296 83.7065 67.9017 83.6624 67.567 83.478C67.2323 83.2937 66.9844 82.9842 66.8777 82.6176L64.672 75.0007C64.6194 74.819 64.6031 74.6287 64.6241 74.4408C64.6451 74.2528 64.7029 74.0708 64.7943 73.9051C64.8857 73.7395 65.0089 73.5935 65.1568 73.4754C65.3047 73.3573 65.4744 73.2695 65.6563 73.2169C65.8381 73.1643 66.0286 73.1481 66.2167 73.169C66.4049 73.19 66.5871 73.2478 66.7529 73.3391C66.9187 73.4304 67.0649 73.5534 67.1831 73.7012C67.3013 73.8489 67.3892 74.0185 67.4418 74.2002L69.6475 81.817C69.7533 82.184 69.7091 82.5779 69.5246 82.9123C69.3401 83.2467 69.0303 83.4943 68.6633 83.6008Z" fill="#3F3D56"/>
<path d="M71.967 95.0076C71.5997 95.1133 71.2055 95.0691 70.8707 94.8848C70.536 94.7004 70.2881 94.391 70.1815 94.0243L67.9757 86.4074C67.8695 86.0405 67.9135 85.6464 68.0981 85.3119C68.2826 84.9774 68.5927 84.7298 68.96 84.6236C69.3273 84.5175 69.7217 84.5614 70.0566 84.7458C70.3914 84.9302 70.6392 85.24 70.7455 85.6069L72.9512 93.2238C73.057 93.5907 73.0128 93.9846 72.8283 94.319C72.6438 94.6534 72.334 94.901 71.967 95.0076Z" fill="#3F3D56"/>
<path d="M183.724 55.9601C183.357 56.0658 182.963 56.0217 182.628 55.8373C182.293 55.653 182.045 55.3435 181.939 54.9768L176.557 36.3913C176.451 36.0244 176.495 35.6303 176.679 35.2958C176.864 34.9612 177.174 34.7137 177.541 34.6075C177.908 34.5014 178.303 34.5453 178.638 34.7297C178.972 34.9141 179.22 35.2239 179.327 35.5908L184.709 54.1763C184.814 54.5433 184.77 54.9371 184.586 55.2715C184.401 55.6059 184.091 55.8536 183.724 55.9601Z" fill="#3F3D56"/>
<path d="M91.9031 66.0835C91.7752 66.1206 91.6382 66.109 91.5183 66.0512L84.5247 62.6854C84.4608 62.6546 84.4035 62.6115 84.3562 62.5586C84.3089 62.5057 84.2725 62.444 84.2491 62.3771C84.2256 62.3101 84.2156 62.2392 84.2196 62.1684C84.2236 62.0976 84.2415 62.0283 84.2723 61.9644L87.6414 54.9775C87.6723 54.9136 87.7154 54.8564 87.7683 54.8092C87.8213 54.7619 87.883 54.7256 87.95 54.7022C88.017 54.6787 88.088 54.6687 88.1589 54.6727C88.2298 54.6767 88.2992 54.6946 88.3632 54.7254C88.4271 54.7562 88.4844 54.7993 88.5317 54.8522C88.579 54.9051 88.6154 54.9667 88.6388 55.0337C88.6623 55.1006 88.6723 55.1715 88.6683 55.2424C88.6643 55.3132 88.6464 55.3825 88.6156 55.4464L85.4811 61.9466L91.9877 65.0781C92.0863 65.1255 92.1682 65.2018 92.2224 65.2967C92.2767 65.3917 92.3009 65.5009 92.2917 65.6099C92.2826 65.7188 92.2405 65.8225 92.1711 65.9071C92.1017 65.9916 92.0082 66.0532 91.9031 66.0835V66.0835Z" fill="#139DDA"/>
<path d="M95.8786 64.9198C95.7719 64.9507 95.6582 64.948 95.553 64.912C95.4479 64.8761 95.3564 64.8086 95.291 64.7189C95.2256 64.6291 95.1895 64.5214 95.1876 64.4104C95.1856 64.2994 95.218 64.1905 95.2802 64.0985L99.3253 58.1212L93.3423 54.0799C93.2833 54.0402 93.2327 53.9893 93.1935 53.9301C93.1542 53.8709 93.127 53.8046 93.1134 53.7348C93.0999 53.6651 93.1002 53.5934 93.1144 53.5238C93.1287 53.4542 93.1565 53.3881 93.1963 53.3293C93.2361 53.2705 93.2872 53.2201 93.3465 53.181C93.4059 53.1419 93.4723 53.1149 93.5422 53.1015C93.612 53.0881 93.6837 53.0886 93.7534 53.1029C93.823 53.1173 93.8891 53.1453 93.9479 53.1852L100.379 57.529C100.438 57.5687 100.488 57.6196 100.527 57.6788C100.566 57.738 100.593 57.8043 100.607 57.8739C100.62 57.9435 100.62 58.0152 100.606 58.0846C100.591 58.1541 100.564 58.2201 100.524 58.2788L96.1758 64.7036C96.1052 64.8083 96 64.8848 95.8786 64.9198Z" fill="#139DDA"/>
<path d="M166.705 52.0704L84.2069 75.9142C82.9344 76.2804 81.5684 76.1274 80.4087 75.4888C79.249 74.8501 78.3902 73.778 78.0207 72.5075L73.3849 56.4989C73.0183 55.2277 73.1714 53.863 73.8107 52.7044C74.45 51.5458 75.5232 50.6879 76.7949 50.3188L159.293 26.475C160.566 26.1088 161.932 26.2618 163.092 26.9004C164.251 27.5391 165.11 28.6112 165.479 29.8817L170.115 45.8903C170.482 47.1616 170.329 48.5262 169.689 49.6848C169.05 50.8434 167.977 51.7014 166.705 52.0704ZM76.9952 51.0105C75.9071 51.3264 74.9888 52.0605 74.4417 53.0519C73.8947 54.0433 73.7637 55.211 74.0773 56.2988L78.7132 72.3074C79.0293 73.3945 79.7642 74.3119 80.7565 74.8584C81.7489 75.4049 82.9177 75.5358 84.0065 75.2224L166.505 51.3787C167.593 51.0628 168.511 50.3287 169.058 49.3373C169.606 48.3459 169.737 47.1782 169.423 46.0904L164.787 30.0818C164.471 28.9947 163.736 28.0773 162.744 27.5308C161.751 26.9844 160.583 26.8534 159.494 27.1668L76.9952 51.0105Z" fill="#3F3D56"/>
<path d="M123.77 47.9869L109.921 51.9895C109.554 52.0956 109.16 52.0517 108.825 51.8673C108.49 51.6829 108.242 51.3731 108.136 51.0062C108.03 50.6393 108.074 50.2452 108.258 49.9107C108.443 49.5761 108.753 49.3286 109.12 49.2224L122.969 45.2198C123.336 45.1137 123.731 45.1576 124.066 45.342C124.4 45.5264 124.648 45.8362 124.754 46.2031C124.861 46.57 124.817 46.9641 124.632 47.2986C124.448 47.6332 124.138 47.8807 123.77 47.9869Z" fill="#E6E6E6"/>
<path d="M155.749 46.9908L111.779 59.699C111.412 59.8052 111.017 59.7612 110.682 59.5768C110.347 59.3924 110.1 59.0827 109.993 58.7158C109.887 58.3488 109.931 57.9548 110.116 57.6202C110.3 57.2857 110.61 57.0381 110.978 56.932L154.948 44.2237C155.315 44.1176 155.709 44.1615 156.044 44.3459C156.379 44.5303 156.627 44.8401 156.733 45.207C156.839 45.5739 156.795 45.968 156.611 46.3025C156.426 46.6371 156.116 46.8847 155.749 46.9908Z" fill="#E6E6E6"/>
<path d="M123.174 175.539C123.046 175.576 122.909 175.564 122.789 175.506L115.795 172.14C115.731 172.11 115.674 172.067 115.627 172.014C115.579 171.961 115.543 171.899 115.52 171.832C115.496 171.765 115.486 171.694 115.49 171.623C115.494 171.553 115.512 171.483 115.543 171.419L118.912 164.433C118.974 164.304 119.085 164.205 119.221 164.157C119.356 164.11 119.504 164.118 119.634 164.18C119.763 164.243 119.862 164.354 119.909 164.489C119.957 164.624 119.948 164.772 119.886 164.901L116.752 171.402L123.258 174.533C123.357 174.581 123.439 174.657 123.493 174.752C123.547 174.847 123.571 174.956 123.562 175.065C123.553 175.174 123.511 175.278 123.442 175.362C123.372 175.447 123.279 175.508 123.174 175.539Z" fill="#139DDA"/>
<path d="M127.149 174.375C127.042 174.406 126.928 174.403 126.823 174.367C126.718 174.331 126.626 174.264 126.561 174.174C126.496 174.085 126.459 173.977 126.458 173.866C126.456 173.755 126.488 173.646 126.55 173.554L130.595 167.576L124.612 163.535C124.494 163.455 124.412 163.331 124.385 163.19C124.358 163.049 124.388 162.904 124.468 162.785C124.548 162.667 124.672 162.585 124.813 162.558C124.953 162.53 125.099 162.56 125.218 162.64L131.649 166.984C131.768 167.064 131.85 167.188 131.877 167.329C131.904 167.47 131.874 167.615 131.794 167.734L127.446 174.159C127.375 174.264 127.27 174.34 127.149 174.375Z" fill="#139DDA"/>
<path d="M204.566 182.815L122.067 206.659C120.795 207.025 119.429 206.872 118.269 206.233C117.11 205.595 116.251 204.523 115.881 203.252L103.934 161.994C103.567 160.723 103.72 159.358 104.36 158.2C104.999 157.041 106.072 156.183 107.344 155.814L189.842 131.97C191.115 131.604 192.481 131.757 193.64 132.396C194.8 133.034 195.659 134.106 196.028 135.377L207.976 176.635C208.343 177.906 208.189 179.271 207.55 180.429C206.911 181.588 205.838 182.446 204.566 182.815ZM107.544 156.506C106.456 156.822 105.538 157.556 104.991 158.547C104.444 159.538 104.312 160.706 104.626 161.794L116.574 203.052C116.89 204.139 117.625 205.057 118.617 205.603C119.61 206.15 120.778 206.281 121.867 205.967L204.366 182.123C205.454 181.808 206.372 181.073 206.919 180.082C207.466 179.091 207.597 177.923 207.284 176.835L195.336 135.577C195.02 134.49 194.285 133.572 193.293 133.026C192.3 132.479 191.131 132.349 190.043 132.662L107.544 156.506Z" fill="#3F3D56"/>
<path d="M155.041 157.442L141.192 161.445C141.01 161.498 140.819 161.514 140.631 161.494C140.443 161.473 140.26 161.415 140.094 161.324C139.928 161.233 139.782 161.109 139.664 160.962C139.545 160.814 139.457 160.644 139.404 160.462C139.352 160.28 139.336 160.09 139.357 159.902C139.378 159.714 139.436 159.532 139.527 159.366C139.619 159.2 139.742 159.054 139.89 158.936C140.039 158.818 140.209 158.73 140.391 158.678L154.239 154.675C154.607 154.57 155.001 154.614 155.335 154.799C155.669 154.983 155.917 155.293 156.023 155.659C156.129 156.026 156.085 156.419 155.901 156.754C155.717 157.088 155.408 157.336 155.041 157.442Z" fill="#E6E6E6"/>
<path d="M187.02 156.446L143.05 169.155C142.868 169.207 142.677 169.224 142.489 169.203C142.301 169.182 142.118 169.125 141.952 169.033C141.787 168.942 141.64 168.819 141.522 168.671C141.404 168.523 141.315 168.354 141.263 168.172C141.21 167.99 141.194 167.8 141.215 167.611C141.236 167.423 141.294 167.241 141.386 167.076C141.477 166.91 141.6 166.764 141.749 166.646C141.897 166.528 142.067 166.44 142.249 166.388L186.219 153.679C186.586 153.573 186.98 153.617 187.315 153.801C187.65 153.986 187.898 154.296 188.004 154.663C188.11 155.03 188.066 155.424 187.882 155.758C187.697 156.093 187.387 156.34 187.02 156.446Z" fill="#E6E6E6"/>
<path d="M90.8164 96.5454L86.7754 97.7133C86.2247 97.8724 85.9075 98.4474 86.0668 98.9976L86.4036 100.161C86.5629 100.711 87.1385 101.028 87.6892 100.869L91.7301 99.7007C92.2808 99.5416 92.5981 98.9666 92.4388 98.4164L92.102 97.2533C91.9427 96.7031 91.3671 96.3862 90.8164 96.5454Z" fill="#E6E6E6"/>
<path d="M123.717 87.0361L119.676 88.204C119.125 88.3632 118.808 88.9382 118.967 89.4883L119.304 90.6514C119.463 91.2016 120.039 91.5186 120.59 91.3594L124.631 90.1915C125.181 90.0323 125.498 89.4573 125.339 88.9071L125.002 87.744C124.843 87.1939 124.267 86.8769 123.717 87.0361Z" fill="#139DDA"/>
<path d="M133.039 84.3417L128.998 85.5097C128.447 85.6688 128.13 86.2438 128.289 86.794L128.626 87.9571C128.786 88.5073 129.361 88.8242 129.912 88.6651L133.953 87.4971C134.503 87.338 134.821 86.763 134.661 86.2128L134.325 85.0497C134.165 84.4995 133.59 84.1826 133.039 84.3417Z" fill="#E6E6E6"/>
<path d="M114.692 89.3597L95.6485 94.8637C95.0978 95.0228 94.7805 95.5978 94.9398 96.148L95.2766 97.3111C95.436 97.8612 96.0115 98.1782 96.5622 98.019L115.606 92.515C116.157 92.3559 116.474 91.7809 116.314 91.2307L115.978 90.0676C115.818 89.5175 115.243 89.2005 114.692 89.3597Z" fill="#E6E6E6"/>
<path d="M158.56 76.681L139.517 82.185C138.966 82.3441 138.649 82.9191 138.808 83.4693L139.145 84.6324C139.304 85.1825 139.88 85.4995 140.43 85.3403L159.474 79.8363C160.025 79.6772 160.342 79.1022 160.183 78.552L159.846 77.3889C159.686 76.8388 159.111 76.5218 158.56 76.681Z" fill="#F2F2F2"/>
<path d="M92.9971 103.633L88.9561 104.801C88.4054 104.96 88.0881 105.535 88.2474 106.085L88.5843 107.248C88.7436 107.798 89.3192 108.115 89.8698 107.956L93.9108 106.788C94.4615 106.629 94.7788 106.054 94.6195 105.504L94.2826 104.341C94.1233 103.791 93.5478 103.474 92.9971 103.633Z" fill="#E6E6E6"/>
<path d="M125.897 94.1235L121.856 95.2914C121.306 95.4506 120.989 96.0256 121.148 96.5757L121.485 97.7388C121.644 98.289 122.22 98.606 122.77 98.4468L126.811 97.2789C127.362 97.1197 127.679 96.5447 127.52 95.9945L127.183 94.8314C127.024 94.2813 126.448 93.9643 125.897 94.1235Z" fill="#139DDA"/>
<path d="M135.22 91.4296L131.179 92.5976C130.628 92.7567 130.311 93.3317 130.47 93.8819L130.807 95.045C130.966 95.5951 131.542 95.9121 132.092 95.753L136.133 94.585C136.684 94.4259 137.001 93.8509 136.842 93.3007L136.505 92.1376C136.346 91.5874 135.77 91.2705 135.22 91.4296Z" fill="#E6E6E6"/>
<path d="M116.872 96.4471L97.8282 101.951C97.2775 102.11 96.9602 102.685 97.1195 103.235L97.4563 104.399C97.6156 104.949 98.1912 105.266 98.7419 105.106L117.786 99.6025C118.336 99.4433 118.653 98.8683 118.494 98.3181L118.157 97.155C117.998 96.6049 117.422 96.2879 116.872 96.4471Z" fill="#E6E6E6"/>
<path d="M160.741 83.7673L141.697 89.2714C141.147 89.4305 140.829 90.0055 140.989 90.5557L141.325 91.7188C141.485 92.269 142.06 92.5859 142.611 92.4268L161.655 86.9227C162.205 86.7635 162.523 86.1885 162.363 85.6384L162.027 84.4752C161.867 83.9251 161.292 83.6081 160.741 83.7673Z" fill="#F2F2F2"/>
<path d="M112.488 105.717L108.447 106.885C107.897 107.044 107.579 107.619 107.739 108.169L108.075 109.333C108.235 109.883 108.81 110.2 109.361 110.041L113.402 108.873C113.953 108.713 114.27 108.138 114.111 107.588L113.774 106.425C113.615 105.875 113.039 105.558 112.488 105.717Z" fill="#E6E6E6"/>
<path d="M145.389 96.208L141.348 97.3759C140.797 97.535 140.48 98.1101 140.639 98.6602L140.976 99.8233C141.135 100.373 141.711 100.69 142.261 100.531L146.302 99.3633C146.853 99.2042 147.17 98.6292 147.011 98.079L146.674 96.9159C146.515 96.3658 145.939 96.0488 145.389 96.208Z" fill="#139DDA"/>
<path d="M154.711 93.5136L150.67 94.6815C150.119 94.8407 149.802 95.4157 149.961 95.9659L150.298 97.129C150.457 97.6791 151.033 97.9961 151.584 97.8369L155.625 96.669C156.175 96.5098 156.493 95.9348 156.333 95.3847L155.997 94.2216C155.837 93.6714 155.262 93.3545 154.711 93.5136Z" fill="#E6E6E6"/>
<path d="M136.364 98.5315L117.32 104.036C116.77 104.195 116.452 104.77 116.612 105.32L116.949 106.483C117.108 107.033 117.683 107.35 118.234 107.191L137.278 101.687C137.828 101.528 138.146 100.953 137.986 100.403L137.65 99.2395C137.49 98.6893 136.915 98.3724 136.364 98.5315Z" fill="#E6E6E6"/>
<path d="M180.233 85.8518L161.189 91.3559C160.639 91.515 160.322 92.09 160.481 92.6402L160.818 93.8033C160.977 94.3534 161.553 94.6704 162.103 94.5112L181.147 89.0072C181.698 88.848 182.015 88.273 181.856 87.7228L181.519 86.5597C181.359 86.0096 180.784 85.6926 180.233 85.8518Z" fill="#F2F2F2"/>
<path d="M100.995 131.659L96.9541 132.827C96.4035 132.986 96.0862 133.561 96.2455 134.111L96.5823 135.274C96.7416 135.824 97.3172 136.141 97.8679 135.982L101.909 134.814C102.46 134.655 102.777 134.08 102.618 133.53L102.281 132.367C102.121 131.816 101.546 131.499 100.995 131.659Z" fill="#139DDA"/>
<path d="M110.317 128.964L106.276 130.132C105.726 130.291 105.408 130.866 105.568 131.417L105.905 132.58C106.064 133.13 106.639 133.447 107.19 133.288L111.231 132.12C111.782 131.961 112.099 131.386 111.94 130.835L111.603 129.672C111.444 129.122 110.868 128.805 110.317 128.964Z" fill="#E6E6E6"/>
<path d="M135.99 121.829L116.946 127.333C116.396 127.493 116.078 128.068 116.238 128.618L116.575 129.781C116.734 130.331 117.309 130.648 117.86 130.489L136.904 124.985C137.454 124.826 137.772 124.251 137.612 123.7L137.276 122.537C137.116 121.987 136.541 121.67 135.99 121.829Z" fill="#F2F2F2"/>
<path d="M122.94 117.598L118.899 118.766C118.349 118.925 118.031 119.5 118.191 120.05L118.528 121.213C118.687 121.764 119.262 122.081 119.813 121.921L123.854 120.753C124.405 120.594 124.722 120.019 124.563 119.469L124.226 118.306C124.067 117.756 123.491 117.439 122.94 117.598Z" fill="#139DDA"/>
<path d="M132.264 114.903L128.223 116.071C127.672 116.23 127.355 116.805 127.514 117.356L127.851 118.519C128.01 119.069 128.586 119.386 129.136 119.227L133.177 118.059C133.728 117.899 134.045 117.324 133.886 116.774L133.549 115.611C133.39 115.061 132.814 114.744 132.264 114.903Z" fill="#139DDA"/>
<path d="M114.067 120.448L95.0235 125.952C94.4728 126.111 94.1555 126.686 94.3148 127.236L94.6516 128.399C94.811 128.949 95.3865 129.266 95.9372 129.107L114.981 123.603C115.532 123.444 115.849 122.869 115.689 122.319L115.353 121.156C115.193 120.605 114.618 120.288 114.067 120.448Z" fill="#E6E6E6"/>
<path d="M157.936 107.768L138.893 113.272C138.342 113.432 138.025 114.007 138.184 114.557L138.521 115.72C138.68 116.27 139.256 116.587 139.806 116.428L158.85 110.924C159.401 110.764 159.718 110.189 159.559 109.639L159.222 108.476C159.063 107.926 158.487 107.609 157.936 107.768Z" fill="#F2F2F2"/>
<path d="M114.408 112.347L110.367 113.515C109.817 113.674 109.499 114.249 109.659 114.799L109.995 115.962C110.155 116.512 110.73 116.829 111.281 116.67L115.322 115.502C115.873 115.343 116.19 114.768 116.031 114.218L115.694 113.055C115.534 112.504 114.959 112.187 114.408 112.347Z" fill="#E6E6E6"/>
<path d="M147.309 102.837L143.268 104.005C142.717 104.164 142.4 104.739 142.559 105.29L142.896 106.453C143.055 107.003 143.631 107.32 144.181 107.161L148.222 105.993C148.773 105.834 149.09 105.259 148.931 104.708L148.594 103.545C148.435 102.995 147.859 102.678 147.309 102.837Z" fill="#139DDA"/>
<path d="M156.631 100.144L152.59 101.311C152.039 101.471 151.722 102.046 151.881 102.596L152.218 103.759C152.377 104.309 152.953 104.626 153.504 104.467L157.545 103.299C158.095 103.14 158.413 102.565 158.253 102.015L157.916 100.851C157.757 100.301 157.182 99.9843 156.631 100.144Z" fill="#E6E6E6"/>
<path d="M138.436 105.687L119.393 111.191C118.842 111.35 118.525 111.925 118.684 112.476L119.021 113.639C119.18 114.189 119.756 114.506 120.306 114.347L139.35 108.843C139.901 108.684 140.218 108.109 140.059 107.558L139.722 106.395C139.562 105.845 138.987 105.528 138.436 105.687Z" fill="#E6E6E6"/>
<path d="M182.303 93.0081L163.26 98.5121C162.709 98.6713 162.392 99.2463 162.551 99.7964L162.888 100.96C163.047 101.51 163.623 101.827 164.174 101.667L183.217 96.1635C183.768 96.0043 184.085 95.4293 183.926 94.8792L183.589 93.7161C183.43 93.1659 182.854 92.849 182.303 93.0081Z" fill="#F2F2F2"/>
<path d="M104.515 118.332C105.411 118.332 106.137 117.606 106.137 116.712C106.137 115.817 105.411 115.091 104.515 115.091C103.62 115.091 102.894 115.817 102.894 116.712C102.894 117.606 103.62 118.332 104.515 118.332Z" fill="#139DDA"/>
<path d="M102.613 111.76C103.509 111.76 104.235 111.034 104.235 110.139C104.235 109.244 103.509 108.519 102.613 108.519C101.717 108.519 100.991 109.244 100.991 110.139C100.991 111.034 101.717 111.76 102.613 111.76Z" fill="#139DDA"/>
<path d="M114.251 16.7581L103.518 19.8601C103.289 19.9253 103.043 19.8972 102.835 19.7818C102.626 19.6665 102.472 19.4733 102.406 19.2445C102.339 19.0158 102.367 18.7702 102.481 18.5614C102.596 18.3526 102.789 18.1977 103.017 18.1307L113.75 15.0287C113.864 14.9953 113.983 14.9847 114.101 14.9974C114.219 15.0102 114.333 15.0462 114.437 15.1032C114.541 15.1602 114.633 15.2371 114.707 15.3296C114.781 15.4221 114.837 15.5283 114.87 15.6422C114.903 15.756 114.913 15.8753 114.899 15.993C114.886 16.1108 114.85 16.2248 114.792 16.3285C114.735 16.4322 114.657 16.5235 114.564 16.5972C114.472 16.6709 114.365 16.7256 114.251 16.7581Z" fill="white"/>
<path d="M119.54 15.0125C119.938 15.0125 120.261 14.6901 120.261 14.2924C120.261 13.8947 119.938 13.5723 119.54 13.5723C119.142 13.5723 118.819 13.8947 118.819 14.2924C118.819 14.6901 119.142 15.0125 119.54 15.0125Z" fill="white"/>
<path d="M153.676 187.396C152.506 187.734 151.263 187.718 150.102 187.35C148.942 186.982 147.917 186.279 147.157 185.329C146.397 184.379 145.936 183.225 145.832 182.013C145.728 180.801 145.987 179.586 146.574 178.521C147.162 177.456 148.053 176.588 149.134 176.029C150.215 175.47 151.437 175.243 152.647 175.378C153.857 175.513 155 176.003 155.931 176.786C156.862 177.57 157.54 178.612 157.878 179.78C158.332 181.347 158.144 183.03 157.356 184.458C156.568 185.886 155.244 186.943 153.676 187.396Z" fill="#E6E6E6"/>
<path d="M154.129 180.232L152.379 180.738L151.873 178.99C151.851 178.913 151.814 178.842 151.764 178.78C151.714 178.717 151.653 178.666 151.583 178.627C151.442 178.549 151.276 178.531 151.121 178.576C150.966 178.62 150.836 178.725 150.758 178.866C150.68 179.006 150.662 179.172 150.706 179.327L151.213 181.075L149.463 181.581C149.308 181.626 149.178 181.73 149.101 181.871C149.023 182.012 149.005 182.177 149.049 182.332C149.094 182.486 149.198 182.617 149.339 182.694C149.48 182.772 149.646 182.791 149.8 182.746L151.55 182.241L152.056 183.989C152.079 184.065 152.116 184.137 152.165 184.199C152.215 184.261 152.277 184.313 152.347 184.351C152.416 184.39 152.493 184.414 152.572 184.423C152.652 184.432 152.732 184.425 152.808 184.403C152.885 184.381 152.957 184.344 153.019 184.294C153.081 184.244 153.133 184.183 153.172 184.113C153.21 184.043 153.234 183.966 153.243 183.887C153.252 183.808 153.245 183.728 153.223 183.651L152.717 181.903L154.467 181.398C154.621 181.353 154.751 181.248 154.829 181.108C154.906 180.967 154.925 180.801 154.88 180.647C154.836 180.492 154.731 180.362 154.59 180.284C154.45 180.206 154.284 180.188 154.129 180.232Z" fill="white"/>
<path d="M170.974 182.396C169.805 182.734 168.561 182.718 167.401 182.35C166.241 181.982 165.216 181.279 164.456 180.329C163.695 179.379 163.234 178.225 163.131 177.013C163.027 175.801 163.285 174.586 163.873 173.521C164.461 172.456 165.352 171.588 166.433 171.029C167.514 170.47 168.736 170.243 169.946 170.378C171.156 170.513 172.299 171.003 173.23 171.786C174.161 172.57 174.838 173.612 175.177 174.78C175.63 176.347 175.443 178.03 174.654 179.458C173.866 180.886 172.543 181.943 170.974 182.396Z" fill="#E6E6E6"/>
<path d="M171.429 175.233L169.679 175.738L168.512 176.076L166.763 176.581C166.608 176.626 166.477 176.73 166.4 176.871C166.322 177.012 166.303 177.178 166.348 177.333C166.393 177.487 166.497 177.618 166.638 177.695C166.779 177.773 166.945 177.791 167.1 177.747L168.85 177.241L170.017 176.904L171.766 176.398C171.843 176.376 171.915 176.339 171.977 176.289C172.04 176.24 172.091 176.178 172.13 176.108C172.169 176.039 172.193 175.962 172.202 175.883C172.211 175.803 172.204 175.723 172.182 175.647C172.16 175.57 172.123 175.498 172.073 175.436C172.023 175.374 171.961 175.322 171.891 175.284C171.821 175.245 171.744 175.221 171.665 175.212C171.586 175.203 171.506 175.21 171.429 175.233Z" fill="white"/>
<path d="M188.274 177.397C187.105 177.735 185.861 177.719 184.701 177.351C183.541 176.983 182.516 176.279 181.755 175.329C180.995 174.379 180.534 173.225 180.431 172.013C180.327 170.802 180.585 169.586 181.173 168.521C181.761 167.456 182.651 166.589 183.732 166.029C184.813 165.47 186.036 165.243 187.246 165.378C188.456 165.513 189.599 166.003 190.53 166.787C191.461 167.571 192.138 168.612 192.477 169.781C192.93 171.348 192.742 173.03 191.954 174.458C191.166 175.887 189.842 176.944 188.274 177.397Z" fill="#E6E6E6"/>
<path d="M189.809 170.248L187.424 168.288C187.372 168.245 187.312 168.212 187.247 168.192C187.181 168.173 187.113 168.166 187.046 168.172C186.978 168.179 186.912 168.199 186.852 168.231C186.792 168.263 186.739 168.306 186.696 168.358C186.653 168.411 186.62 168.471 186.601 168.536C186.581 168.601 186.574 168.669 186.581 168.737C186.587 168.805 186.607 168.87 186.639 168.93C186.671 168.99 186.714 169.043 186.767 169.086L188.309 170.354L186.978 170.738L185.811 171.075L184.061 171.581C183.907 171.626 183.776 171.73 183.698 171.871C183.621 172.012 183.602 172.178 183.647 172.333C183.692 172.487 183.796 172.618 183.937 172.695C184.078 172.773 184.244 172.791 184.399 172.747L186.149 172.241L187.315 171.904L188.7 171.504L188.042 173.491C188 173.621 188.01 173.763 188.072 173.885C188.134 174.007 188.242 174.1 188.372 174.143C188.502 174.186 188.644 174.176 188.766 174.114C188.889 174.053 188.982 173.945 189.025 173.815L189.994 170.887C190.02 170.773 190.017 170.655 189.984 170.543C189.952 170.431 189.891 170.329 189.809 170.248V170.248Z" fill="white"/>
</g>
<defs>
<clipPath id="clip0_24_36">
<rect width="223" height="228" fill="white"/>
</clipPath>
</defs>
</svg>
