<svg xmlns="http://www.w3.org/2000/svg" xmlns:xlink="http://www.w3.org/1999/xlink" viewBox="0 0 1502.82 1089.75"><defs><style>.cls-1{opacity:0.42;}.cls-2{fill:url(#名称未設定グラデーション_127);}.cls-3{fill:url(#名称未設定グラデーション_127-106);}</style><linearGradient id="名称未設定グラデーション_127" x1="1486.95" y1="1073.87" x2="1292.13" y2="879.06" gradientUnits="userSpaceOnUse"><stop offset="0" stop-color="#fff"/><stop offset="0.52" stop-color="#fff"/><stop offset="1" stop-color="#fff" stop-opacity="0"/></linearGradient><linearGradient id="名称未設定グラデーション_127-106" x1="732.26" y1="709.93" x2="537.44" y2="515.11" gradientTransform="translate(748.13 725.8) rotate(180)" xlink:href="#名称未設定グラデーション_127"/></defs><g id="レイヤー_2" data-name="レイヤー 2"><g id="背景"><g class="cls-1"><polygon class="cls-2" points="1467.65 1019.4 1432.47 1089.75 1397.3 1019.4 1467.65 1019.4"/><polygon class="cls-2" points="1397.3 1019.4 1362.13 1089.75 1326.95 1019.4 1397.3 1019.4"/><polygon class="cls-2" points="1326.95 1019.4 1291.78 1089.75 1256.61 1019.4 1326.95 1019.4"/><polygon class="cls-2" points="1256.61 1019.4 1221.43 1089.75 1186.26 1019.4 1256.61 1019.4"/><polygon class="cls-2" points="1186.26 1019.4 1151.09 1089.75 1115.91 1019.4 1186.26 1019.4"/><polygon class="cls-2" points="1115.91 1019.4 1080.74 1089.75 1045.56 1019.4 1115.91 1019.4"/><polygon class="cls-2" points="1045.56 1019.4 1010.39 1089.75 975.22 1019.4 1045.56 1019.4"/><polygon class="cls-2" points="975.22 1019.4 940.04 1089.75 904.87 1019.4 975.22 1019.4"/><polygon class="cls-2" points="904.87 1019.4 869.7 1089.75 834.52 1019.4 904.87 1019.4"/><polygon class="cls-2" points="1502.82 949.06 1467.65 1019.4 1432.47 949.06 1502.82 949.06"/><polygon class="cls-2" points="1432.47 949.06 1397.3 1019.4 1362.13 949.06 1432.47 949.06"/><polygon class="cls-2" points="1362.13 949.06 1326.95 1019.4 1291.78 949.06 1362.13 949.06"/><polygon class="cls-2" points="1291.78 949.06 1256.6 1019.4 1221.43 949.06 1291.78 949.06"/><polygon class="cls-2" points="1221.43 949.06 1186.26 1019.4 1151.09 949.06 1221.43 949.06"/><polygon class="cls-2" points="1151.09 949.06 1115.91 1019.4 1080.74 949.06 1151.09 949.06"/><polygon class="cls-2" points="1080.74 949.06 1045.56 1019.4 1010.39 949.06 1080.74 949.06"/><polygon class="cls-2" points="1010.39 949.06 975.21 1019.4 940.04 949.06 1010.39 949.06"/><polygon class="cls-2" points="940.04 949.06 904.87 1019.4 869.7 949.06 940.04 949.06"/><polygon class="cls-2" points="869.7 949.06 834.52 1019.4 799.35 949.06 869.7 949.06"/><polygon class="cls-2" points="1502.82 1019.4 1502.82 1089.75 1467.65 1019.4 1502.82 1019.4"/><polygon class="cls-2" points="799.35 1019.4 799.35 1089.75 834.52 1019.4 799.35 1019.4"/><polygon class="cls-2" points="1467.65 878.71 1432.47 949.06 1397.3 878.71 1467.65 878.71"/><polygon class="cls-2" points="1397.3 878.71 1362.13 949.06 1326.95 878.71 1397.3 878.71"/><polygon class="cls-2" points="1326.95 878.71 1291.78 949.06 1256.61 878.71 1326.95 878.71"/><polygon class="cls-2" points="1256.61 878.71 1221.43 949.06 1186.26 878.71 1256.61 878.71"/><polygon class="cls-2" points="1186.26 878.71 1151.09 949.06 1115.91 878.71 1186.26 878.71"/><polygon class="cls-2" points="1115.91 878.71 1080.74 949.06 1045.56 878.71 1115.91 878.71"/><polygon class="cls-2" points="1045.56 878.71 1010.39 949.06 975.22 878.71 1045.56 878.71"/><polygon class="cls-2" points="975.22 878.71 940.04 949.06 904.87 878.71 975.22 878.71"/><polygon class="cls-2" points="904.87 878.71 869.7 949.06 834.52 878.71 904.87 878.71"/><polygon class="cls-2" points="1502.82 808.36 1467.65 878.71 1432.47 808.36 1502.82 808.36"/><polygon class="cls-2" points="1432.47 808.36 1397.3 878.71 1362.13 808.36 1432.47 808.36"/><polygon class="cls-2" points="1362.13 808.36 1326.95 878.71 1291.78 808.36 1362.13 808.36"/><polygon class="cls-2" points="1291.78 808.36 1256.6 878.71 1221.43 808.36 1291.78 808.36"/><polygon class="cls-2" points="1221.43 808.36 1186.26 878.71 1151.09 808.36 1221.43 808.36"/><polygon class="cls-2" points="1151.09 808.36 1115.91 878.71 1080.74 808.36 1151.09 808.36"/><polygon class="cls-2" points="1080.74 808.36 1045.56 878.71 1010.39 808.36 1080.74 808.36"/><polygon class="cls-2" points="1010.39 808.36 975.21 878.71 940.04 808.36 1010.39 808.36"/><polygon class="cls-2" points="940.04 808.36 904.87 878.71 869.7 808.36 940.04 808.36"/><polygon class="cls-2" points="869.7 808.36 834.52 878.71 799.35 808.36 869.7 808.36"/><polygon class="cls-2" points="1502.82 878.71 1502.82 949.06 1467.65 878.71 1502.82 878.71"/><polygon class="cls-2" points="799.35 878.71 799.35 949.06 834.52 878.71 799.35 878.71"/><polygon class="cls-2" points="1467.65 738.01 1432.47 808.36 1397.3 738.01 1467.65 738.01"/><polygon class="cls-2" points="1397.3 738.01 1362.13 808.36 1326.95 738.01 1397.3 738.01"/><polygon class="cls-2" points="1326.95 738.01 1291.78 808.36 1256.61 738.01 1326.95 738.01"/><polygon class="cls-2" points="1256.61 738.01 1221.43 808.36 1186.26 738.01 1256.61 738.01"/><polygon class="cls-2" points="1186.26 738.01 1151.09 808.36 1115.91 738.01 1186.26 738.01"/><polygon class="cls-2" points="1115.91 738.01 1080.74 808.36 1045.56 738.01 1115.91 738.01"/><polygon class="cls-2" points="1045.56 738.01 1010.39 808.36 975.22 738.01 1045.56 738.01"/><polygon class="cls-2" points="975.22 738.01 940.04 808.36 904.87 738.01 975.22 738.01"/><polygon class="cls-2" points="904.87 738.01 869.7 808.36 834.52 738.01 904.87 738.01"/><polygon class="cls-2" points="1502.82 667.67 1467.65 738.01 1432.47 667.67 1502.82 667.67"/><polygon class="cls-2" points="1432.47 667.67 1397.3 738.01 1362.13 667.67 1432.47 667.67"/><polygon class="cls-2" points="1362.13 667.67 1326.95 738.01 1291.78 667.67 1362.13 667.67"/><polygon class="cls-2" points="1291.78 667.67 1256.6 738.01 1221.43 667.67 1291.78 667.67"/><polygon class="cls-2" points="1221.43 667.67 1186.26 738.01 1151.09 667.67 1221.43 667.67"/><polygon class="cls-2" points="1151.09 667.67 1115.91 738.01 1080.74 667.67 1151.09 667.67"/><polygon class="cls-2" points="1080.74 667.67 1045.56 738.01 1010.39 667.67 1080.74 667.67"/><polygon class="cls-2" points="1010.39 667.67 975.21 738.01 940.04 667.67 1010.39 667.67"/><polygon class="cls-2" points="940.04 667.67 904.87 738.01 869.7 667.67 940.04 667.67"/><polygon class="cls-2" points="869.7 667.67 834.52 738.01 799.35 667.67 869.7 667.67"/><polygon class="cls-2" points="1502.82 738.01 1502.82 808.36 1467.65 738.01 1502.82 738.01"/><polygon class="cls-2" points="799.35 738.01 799.35 808.36 834.52 738.01 799.35 738.01"/><polygon class="cls-2" points="1467.65 597.32 1432.47 667.67 1397.3 597.32 1467.65 597.32"/><polygon class="cls-2" points="1397.3 597.32 1362.13 667.67 1326.95 597.32 1397.3 597.32"/><polygon class="cls-2" points="1326.95 597.32 1291.78 667.67 1256.61 597.32 1326.95 597.32"/><polygon class="cls-2" points="1256.61 597.32 1221.43 667.67 1186.26 597.32 1256.61 597.32"/><polygon class="cls-2" points="1186.26 597.32 1151.09 667.67 1115.91 597.32 1186.26 597.32"/><polygon class="cls-2" points="1115.91 597.32 1080.74 667.67 1045.56 597.32 1115.91 597.32"/><polygon class="cls-2" points="1045.56 597.32 1010.39 667.67 975.22 597.32 1045.56 597.32"/><polygon class="cls-2" points="975.22 597.32 940.04 667.67 904.87 597.32 975.22 597.32"/><polygon class="cls-2" points="904.87 597.32 869.7 667.67 834.52 597.32 904.87 597.32"/><polygon class="cls-2" points="1502.82 526.97 1467.65 597.32 1432.47 526.97 1502.82 526.97"/><polygon class="cls-2" points="1432.47 526.97 1397.3 597.32 1362.13 526.97 1432.47 526.97"/><polygon class="cls-2" points="1362.13 526.97 1326.95 597.32 1291.78 526.97 1362.13 526.97"/><polygon class="cls-2" points="1291.78 526.97 1256.6 597.32 1221.43 526.97 1291.78 526.97"/><polygon class="cls-2" points="1221.43 526.97 1186.26 597.32 1151.09 526.97 1221.43 526.97"/><polygon class="cls-2" points="1151.09 526.97 1115.91 597.32 1080.74 526.97 1151.09 526.97"/><polygon class="cls-2" points="1080.74 526.97 1045.56 597.32 1010.39 526.97 1080.74 526.97"/><polygon class="cls-2" points="1010.39 526.97 975.21 597.32 940.04 526.97 1010.39 526.97"/><polygon class="cls-2" points="940.04 526.97 904.87 597.32 869.7 526.97 940.04 526.97"/><polygon class="cls-2" points="869.7 526.97 834.52 597.32 799.35 526.97 869.7 526.97"/><polygon class="cls-2" points="1502.82 597.32 1502.82 667.67 1467.65 597.32 1502.82 597.32"/><polygon class="cls-2" points="799.35 597.32 799.35 667.67 834.52 597.32 799.35 597.32"/><polygon class="cls-2" points="1467.65 456.62 1432.47 526.97 1397.3 456.62 1467.65 456.62"/><polygon class="cls-2" points="1397.3 456.62 1362.13 526.97 1326.95 456.62 1397.3 456.62"/><polygon class="cls-2" points="1326.95 456.62 1291.78 526.97 1256.61 456.62 1326.95 456.62"/><polygon class="cls-2" points="1256.61 456.62 1221.43 526.97 1186.26 456.62 1256.61 456.62"/><polygon class="cls-2" points="1186.26 456.62 1151.09 526.97 1115.91 456.62 1186.26 456.62"/><polygon class="cls-2" points="1115.91 456.62 1080.74 526.97 1045.56 456.62 1115.91 456.62"/><polygon class="cls-2" points="1045.56 456.62 1010.39 526.97 975.22 456.62 1045.56 456.62"/><polygon class="cls-2" points="975.22 456.62 940.04 526.97 904.87 456.62 975.22 456.62"/><polygon class="cls-2" points="904.87 456.62 869.7 526.97 834.52 456.62 904.87 456.62"/><polygon class="cls-2" points="1502.82 386.28 1467.65 456.62 1432.47 386.28 1502.82 386.28"/><polygon class="cls-2" points="1432.47 386.28 1397.3 456.62 1362.13 386.28 1432.47 386.28"/><polygon class="cls-2" points="1362.13 386.28 1326.95 456.62 1291.78 386.28 1362.13 386.28"/><polygon class="cls-2" points="1291.78 386.28 1256.6 456.62 1221.43 386.28 1291.78 386.28"/><polygon class="cls-2" points="1221.43 386.28 1186.26 456.62 1151.09 386.28 1221.43 386.28"/><polygon class="cls-2" points="1151.09 386.28 1115.91 456.62 1080.74 386.28 1151.09 386.28"/><polygon class="cls-2" points="1080.74 386.28 1045.56 456.62 1010.39 386.28 1080.74 386.28"/><polygon class="cls-2" points="1010.39 386.28 975.21 456.62 940.04 386.28 1010.39 386.28"/><polygon class="cls-2" points="940.04 386.28 904.87 456.62 869.7 386.28 940.04 386.28"/><polygon class="cls-2" points="869.7 386.28 834.52 456.62 799.35 386.28 869.7 386.28"/><polygon class="cls-2" points="1502.82 456.62 1502.82 526.97 1467.65 456.62 1502.82 456.62"/><polygon class="cls-2" points="799.35 456.62 799.35 526.97 834.52 456.62 799.35 456.62"/></g><g class="cls-1"><polygon class="cls-3" points="35.17 70.35 70.35 0 105.52 70.35 35.17 70.35"/><polygon class="cls-3" points="105.52 70.35 140.69 0 175.87 70.35 105.52 70.35"/><polygon class="cls-3" points="175.87 70.35 211.04 0 246.22 70.35 175.87 70.35"/><polygon class="cls-3" points="246.22 70.35 281.39 0 316.56 70.35 246.22 70.35"/><polygon class="cls-3" points="316.56 70.35 351.74 0 386.91 70.35 316.56 70.35"/><polygon class="cls-3" points="386.91 70.35 422.08 0 457.26 70.35 386.91 70.35"/><polygon class="cls-3" points="457.26 70.35 492.43 0 527.61 70.35 457.26 70.35"/><polygon class="cls-3" points="527.61 70.35 562.78 0 597.95 70.35 527.61 70.35"/><polygon class="cls-3" points="597.95 70.35 633.13 0 668.3 70.35 597.95 70.35"/><polygon class="cls-3" points="0 140.69 35.18 70.35 70.35 140.69 0 140.69"/><polygon class="cls-3" points="70.35 140.69 105.53 70.35 140.69 140.69 70.35 140.69"/><polygon class="cls-3" points="140.69 140.69 175.87 70.35 211.04 140.69 140.69 140.69"/><polygon class="cls-3" points="211.04 140.69 246.22 70.35 281.39 140.69 211.04 140.69"/><polygon class="cls-3" points="281.39 140.69 316.57 70.35 351.74 140.69 281.39 140.69"/><polygon class="cls-3" points="351.74 140.69 386.91 70.35 422.08 140.69 351.74 140.69"/><polygon class="cls-3" points="422.08 140.69 457.26 70.35 492.43 140.69 422.08 140.69"/><polygon class="cls-3" points="492.43 140.69 527.61 70.35 562.78 140.69 492.43 140.69"/><polygon class="cls-3" points="562.78 140.69 597.96 70.35 633.13 140.69 562.78 140.69"/><polygon class="cls-3" points="633.13 140.69 668.3 70.35 703.48 140.69 633.13 140.69"/><polygon class="cls-3" points="0 70.35 0 0 35.17 70.35 0 70.35"/><polygon class="cls-3" points="703.48 70.35 703.47 0 668.3 70.35 703.48 70.35"/><polygon class="cls-3" points="35.17 211.04 70.35 140.69 105.52 211.04 35.17 211.04"/><polygon class="cls-3" points="105.52 211.04 140.69 140.69 175.87 211.04 105.52 211.04"/><polygon class="cls-3" points="175.87 211.04 211.04 140.69 246.22 211.04 175.87 211.04"/><polygon class="cls-3" points="246.22 211.04 281.39 140.69 316.56 211.04 246.22 211.04"/><polygon class="cls-3" points="316.56 211.04 351.74 140.69 386.91 211.04 316.56 211.04"/><polygon class="cls-3" points="386.91 211.04 422.08 140.69 457.26 211.04 386.91 211.04"/><polygon class="cls-3" points="457.26 211.04 492.43 140.69 527.61 211.04 457.26 211.04"/><polygon class="cls-3" points="527.61 211.04 562.78 140.69 597.95 211.04 527.61 211.04"/><polygon class="cls-3" points="597.95 211.04 633.13 140.69 668.3 211.04 597.95 211.04"/><polygon class="cls-3" points="0 281.39 35.18 211.04 70.35 281.39 0 281.39"/><polygon class="cls-3" points="70.35 281.39 105.53 211.04 140.69 281.39 70.35 281.39"/><polygon class="cls-3" points="140.69 281.39 175.87 211.04 211.04 281.39 140.69 281.39"/><polygon class="cls-3" points="211.04 281.39 246.22 211.04 281.39 281.39 211.04 281.39"/><polygon class="cls-3" points="281.39 281.39 316.57 211.04 351.74 281.39 281.39 281.39"/><polygon class="cls-3" points="351.74 281.39 386.91 211.04 422.08 281.39 351.74 281.39"/><polygon class="cls-3" points="422.08 281.39 457.26 211.04 492.43 281.39 422.08 281.39"/><polygon class="cls-3" points="492.43 281.39 527.61 211.04 562.78 281.39 492.43 281.39"/><polygon class="cls-3" points="562.78 281.39 597.96 211.04 633.13 281.39 562.78 281.39"/><polygon class="cls-3" points="633.13 281.39 668.3 211.04 703.48 281.39 633.13 281.39"/><polygon class="cls-3" points="0 211.04 0 140.69 35.17 211.04 0 211.04"/><polygon class="cls-3" points="703.48 211.04 703.47 140.69 668.3 211.04 703.48 211.04"/><polygon class="cls-3" points="35.17 351.74 70.35 281.39 105.52 351.74 35.17 351.74"/><polygon class="cls-3" points="105.52 351.74 140.69 281.39 175.87 351.74 105.52 351.74"/><polygon class="cls-3" points="175.87 351.74 211.04 281.39 246.22 351.74 175.87 351.74"/><polygon class="cls-3" points="246.22 351.74 281.39 281.39 316.56 351.74 246.22 351.74"/><polygon class="cls-3" points="316.56 351.74 351.74 281.39 386.91 351.74 316.56 351.74"/><polygon class="cls-3" points="386.91 351.74 422.08 281.39 457.26 351.74 386.91 351.74"/><polygon class="cls-3" points="457.26 351.74 492.43 281.39 527.61 351.74 457.26 351.74"/><polygon class="cls-3" points="527.61 351.74 562.78 281.39 597.95 351.74 527.61 351.74"/><polygon class="cls-3" points="597.95 351.74 633.13 281.39 668.3 351.74 597.95 351.74"/><polygon class="cls-3" points="0 422.08 35.18 351.74 70.35 422.08 0 422.08"/><polygon class="cls-3" points="70.35 422.08 105.53 351.74 140.69 422.08 70.35 422.08"/><polygon class="cls-3" points="140.69 422.08 175.87 351.74 211.04 422.08 140.69 422.08"/><polygon class="cls-3" points="211.04 422.08 246.22 351.74 281.39 422.08 211.04 422.08"/><polygon class="cls-3" points="281.39 422.08 316.57 351.74 351.74 422.08 281.39 422.08"/><polygon class="cls-3" points="351.74 422.08 386.91 351.74 422.08 422.08 351.74 422.08"/><polygon class="cls-3" points="422.08 422.08 457.26 351.74 492.43 422.08 422.08 422.08"/><polygon class="cls-3" points="492.43 422.08 527.61 351.74 562.78 422.08 492.43 422.08"/><polygon class="cls-3" points="562.78 422.08 597.96 351.74 633.13 422.08 562.78 422.08"/><polygon class="cls-3" points="633.13 422.08 668.3 351.74 703.48 422.08 633.13 422.08"/><polygon class="cls-3" points="0 351.74 0 281.39 35.17 351.74 0 351.74"/><polygon class="cls-3" points="703.48 351.74 703.47 281.39 668.3 351.74 703.48 351.74"/><polygon class="cls-3" points="35.17 492.43 70.35 422.08 105.52 492.43 35.17 492.43"/><polygon class="cls-3" points="105.52 492.43 140.69 422.08 175.87 492.43 105.52 492.43"/><polygon class="cls-3" points="175.87 492.43 211.04 422.08 246.22 492.43 175.87 492.43"/><polygon class="cls-3" points="246.22 492.43 281.39 422.08 316.56 492.43 246.22 492.43"/><polygon class="cls-3" points="316.56 492.43 351.74 422.08 386.91 492.43 316.56 492.43"/><polygon class="cls-3" points="386.91 492.43 422.08 422.08 457.26 492.43 386.91 492.43"/><polygon class="cls-3" points="457.26 492.43 492.43 422.08 527.61 492.43 457.26 492.43"/><polygon class="cls-3" points="527.61 492.43 562.78 422.08 597.95 492.43 527.61 492.43"/><polygon class="cls-3" points="597.95 492.43 633.13 422.08 668.3 492.43 597.95 492.43"/><polygon class="cls-3" points="0 562.78 35.18 492.43 70.35 562.78 0 562.78"/><polygon class="cls-3" points="70.35 562.78 105.53 492.43 140.69 562.78 70.35 562.78"/><polygon class="cls-3" points="140.69 562.78 175.87 492.43 211.04 562.78 140.69 562.78"/><polygon class="cls-3" points="211.04 562.78 246.22 492.43 281.39 562.78 211.04 562.78"/><polygon class="cls-3" points="281.39 562.78 316.57 492.43 351.74 562.78 281.39 562.78"/><polygon class="cls-3" points="351.74 562.78 386.91 492.43 422.08 562.78 351.74 562.78"/><polygon class="cls-3" points="422.08 562.78 457.26 492.43 492.43 562.78 422.08 562.78"/><polygon class="cls-3" points="492.43 562.78 527.61 492.43 562.78 562.78 492.43 562.78"/><polygon class="cls-3" points="562.78 562.78 597.96 492.43 633.13 562.78 562.78 562.78"/><polygon class="cls-3" points="633.13 562.78 668.3 492.43 703.48 562.78 633.13 562.78"/><polygon class="cls-3" points="0 492.43 0 422.08 35.17 492.43 0 492.43"/><polygon class="cls-3" points="703.48 492.43 703.47 422.08 668.3 492.43 703.48 492.43"/><polygon class="cls-3" points="35.17 633.13 70.35 562.78 105.52 633.13 35.17 633.13"/><polygon class="cls-3" points="105.52 633.13 140.69 562.78 175.87 633.13 105.52 633.13"/><polygon class="cls-3" points="175.87 633.13 211.04 562.78 246.22 633.13 175.87 633.13"/><polygon class="cls-3" points="246.22 633.13 281.39 562.78 316.56 633.13 246.22 633.13"/><polygon class="cls-3" points="316.56 633.13 351.74 562.78 386.91 633.13 316.56 633.13"/><polygon class="cls-3" points="386.91 633.13 422.08 562.78 457.26 633.13 386.91 633.13"/><polygon class="cls-3" points="457.26 633.13 492.43 562.78 527.61 633.13 457.26 633.13"/><polygon class="cls-3" points="527.61 633.13 562.78 562.78 597.95 633.13 527.61 633.13"/><polygon class="cls-3" points="597.95 633.13 633.13 562.78 668.3 633.13 597.95 633.13"/><polygon class="cls-3" points="0 703.48 35.18 633.13 70.35 703.48 0 703.48"/><polygon class="cls-3" points="70.35 703.48 105.53 633.13 140.69 703.48 70.35 703.48"/><polygon class="cls-3" points="140.69 703.48 175.87 633.13 211.04 703.48 140.69 703.48"/><polygon class="cls-3" points="211.04 703.48 246.22 633.13 281.39 703.48 211.04 703.48"/><polygon class="cls-3" points="281.39 703.48 316.57 633.13 351.74 703.48 281.39 703.48"/><polygon class="cls-3" points="351.74 703.48 386.91 633.13 422.08 703.48 351.74 703.48"/><polygon class="cls-3" points="422.08 703.48 457.26 633.13 492.43 703.48 422.08 703.48"/><polygon class="cls-3" points="492.43 703.48 527.61 633.13 562.78 703.48 492.43 703.48"/><polygon class="cls-3" points="562.78 703.48 597.96 633.13 633.13 703.48 562.78 703.48"/><polygon class="cls-3" points="633.13 703.48 668.3 633.13 703.48 703.48 633.13 703.48"/><polygon class="cls-3" points="0 633.13 0 562.78 35.17 633.13 0 633.13"/><polygon class="cls-3" points="703.48 633.13 703.47 562.78 668.3 633.13 703.48 633.13"/></g></g></g></svg>