<svg xmlns="http://www.w3.org/2000/svg" viewBox="0 0 19.94 20.27"><defs><style>.cls-1{fill:#009444;}</style></defs><g id="レイヤー_2" data-name="レイヤー 2"><g id="Contents"><path class="cls-1" d="M6.36,3.55a1,1,0,0,0,1-1V1a1,1,0,0,0-2,0V2.56A1,1,0,0,0,6.36,3.55Z"/><path class="cls-1" d="M13.7,3.55a1,1,0,0,0,1-1V1a1,1,0,0,0-2,0V2.56A1,1,0,0,0,13.7,3.55Z"/><path class="cls-1" d="M17.14,1.42H15.56V2.56a1.87,1.87,0,1,1-3.73,0V1.42H8.23V2.56a1.87,1.87,0,0,1-3.74,0V1.42H2.79A2.79,2.79,0,0,0,0,4.21V17.47a2.79,2.79,0,0,0,2.79,2.8H17.14a2.8,2.8,0,0,0,2.8-2.8V4.21A2.8,2.8,0,0,0,17.14,1.42Zm1.44,16a1.45,1.45,0,0,1-1.44,1.44H2.79a1.44,1.44,0,0,1-1.43-1.44V6H18.58Z"/><rect class="cls-1" x="6.76" y="15.14" width="2.52" height="2.52"/><rect class="cls-1" x="6.76" y="11.24" width="2.52" height="2.52"/><rect class="cls-1" x="2.86" y="15.14" width="2.52" height="2.52"/><rect class="cls-1" x="2.86" y="11.24" width="2.52" height="2.52"/><rect class="cls-1" x="14.56" y="7.34" width="2.52" height="2.52"/><rect class="cls-1" x="10.66" y="7.34" width="2.52" height="2.52"/><rect class="cls-1" x="10.66" y="11.24" width="2.52" height="2.52"/><rect class="cls-1" x="14.56" y="11.24" width="2.52" height="2.52"/><rect class="cls-1" x="10.66" y="15.14" width="2.52" height="2.52"/><rect class="cls-1" x="6.76" y="7.34" width="2.52" height="2.52"/></g></g></svg>