<svg xmlns="http://www.w3.org/2000/svg" viewBox="0 0 28.15 26.25"><defs><style>.cls-1{fill:#82c31e;}.cls-2{fill:#009544;}</style></defs><g id="レイヤー_2" data-name="レイヤー 2"><g id="Menu"><path class="cls-1" d="M17.47,2.43A2.43,2.43,0,0,0,15,0H13.1a2.43,2.43,0,0,0-2.42,2.43V6.79h6.79Zm-1.94,1a.48.48,0,0,1-.49.48H13.1a.47.47,0,0,1-.48-.48v-1a.48.48,0,0,1,.48-.49H15a.49.49,0,0,1,.49.49Z"/><path class="cls-2" d="M27.05,5.87H18.44v.92a1,1,0,0,1-1,1H10.68a1,1,0,0,1-1-1V5.87H1.1A1.1,1.1,0,0,0,0,7V25.16a1.09,1.09,0,0,0,1.1,1.09h26a1.1,1.1,0,0,0,1.1-1.09V7A1.1,1.1,0,0,0,27.05,5.87ZM5.56,13.61a2.71,2.71,0,0,1,5.42,0v.77a2.71,2.71,0,0,1-5.42,0Zm2.71,8.62H3.32a4.36,4.36,0,0,1,3.85-4.52,3.48,3.48,0,0,0,2.21,0,4.36,4.36,0,0,1,3.84,4.52Zm11.46-2.59H15.62v-1h4.11Zm4.1-2.21H15.62v-1h8.21Zm-2.16-2.36H15.84V12.92h5.83Z"/></g></g></svg>