<svg xmlns="http://www.w3.org/2000/svg" viewBox="0 0 34.06 34.06"><defs><style>.cls-1{fill:#009544;}.cls-2{fill:#cfdf03;}</style></defs><g id="レイヤー_2" data-name="レイヤー 2"><g id="Menu"><path class="cls-1" d="M13.62,16.93l2.28-2.28a7.17,7.17,0,1,0,3.51,3.51l-2.28,2.28a4.3,4.3,0,1,1-3.51-3.51Z"/><path class="cls-1" d="M21.53,16A10,10,0,1,1,18,12.53l2.07-2.08A12.9,12.9,0,1,0,23.6,14Z"/><path class="cls-1" d="M34,5.64a.67.67,0,0,0-.68-.43l-4.7.22.22-4.7a.68.68,0,0,0-.44-.68.79.79,0,0,0-.83.19l-5,5-.25,5.41-9.11,9.11a1.42,1.42,0,0,0-1.33.38,1.44,1.44,0,1,0,2.41.69l9.11-9.1,5.41-.25,5-5A.8.8,0,0,0,34,5.64Z"/><path class="cls-2" d="M21.53,16A10,10,0,1,1,18,12.53l2.07-2.08A12.9,12.9,0,1,0,23.6,14Z"/></g></g></svg>