<svg xmlns="http://www.w3.org/2000/svg" viewBox="0 0 22.34 21.93"><defs><style>.cls-1{fill:#009544;}.cls-2{fill:#82c31e;}</style></defs><g id="レイヤー_2" data-name="レイヤー 2"><g id="Contents"><path class="cls-1" d="M18.42.06C13.76.7,9.3,9.43,7.11,13.48c-.55,1,.41,1.54,1,.57.41-.7,1.4-2.73,1.94-2.62,2.56.42,3.93-1.25,3-2.3,3.26.06,4.88-1.73,4-2.82a4.88,4.88,0,0,0,3.65-.42C23.27,4.43,23.11-.59,18.42.06Z"/><path class="cls-1" d="M17.86,8.83A6.42,6.42,0,0,1,16,10v9a.69.69,0,0,1-.2.5.69.69,0,0,1-.51.21H2.85a.66.66,0,0,1-.5-.21.69.69,0,0,1-.21-.5V6.6a.72.72,0,0,1,.71-.71h7c.49-.75,1-1.47,1.51-2.14H2.85A2.85,2.85,0,0,0,0,6.6V19.08a2.85,2.85,0,0,0,2.85,2.85H15.33a2.83,2.83,0,0,0,2.85-2.85V8.79S18.07,8.63,17.86,8.83Z"/><path class="cls-2" d="M17.86,8.83A6.42,6.42,0,0,1,16,10v9a.69.69,0,0,1-.2.5.69.69,0,0,1-.51.21H2.85a.66.66,0,0,1-.5-.21.69.69,0,0,1-.21-.5V6.6a.72.72,0,0,1,.71-.71h7c.49-.75,1-1.47,1.51-2.14H2.85A2.85,2.85,0,0,0,0,6.6V19.08a2.85,2.85,0,0,0,2.85,2.85H15.33a2.83,2.83,0,0,0,2.85-2.85V8.79S18.07,8.63,17.86,8.83Z"/></g></g></svg>