<svg xmlns="http://www.w3.org/2000/svg" viewBox="0 0 26.1 18.18"><defs><style>.cls-1{fill:#009444;}.cls-2{fill:#81c21e;}</style></defs><g id="レイヤー_2" data-name="レイヤー 2"><g id="Contents"><path class="cls-1" d="M9.56,0A1.35,1.35,0,0,1,8.3,1.34V3.21a1.34,1.34,0,0,1,0,2.67V7.75A1.35,1.35,0,0,1,9.56,9.09,1.34,1.34,0,0,1,8.3,10.43V12.3a1.34,1.34,0,0,1,1.26,1.34A1.35,1.35,0,0,1,8.3,15v1.87a1.34,1.34,0,0,1,1.26,1.33H26.1V0Z"/><path class="cls-1" d="M8.22,15a1.35,1.35,0,0,1,0-2.7H8.3V10.43H8.22a1.35,1.35,0,0,1,0-2.7H8.3V5.88H8.22a1.35,1.35,0,1,1,0-2.69H8.3V1.34H8.22A1.35,1.35,0,0,1,6.87,0H0V18.18H6.87a1.34,1.34,0,0,1,1.35-1.34H8.3V15Z"/><path class="cls-2" d="M8.22,15a1.35,1.35,0,0,1,0-2.7H8.3V10.43H8.22a1.35,1.35,0,0,1,0-2.7H8.3V5.88H8.22a1.35,1.35,0,1,1,0-2.69H8.3V1.34H8.22A1.35,1.35,0,0,1,6.87,0H0V18.18H6.87a1.34,1.34,0,0,1,1.35-1.34H8.3V15Z"/></g></g></svg>