<svg xmlns="http://www.w3.org/2000/svg" viewBox="0 0 33.04 22.73"><defs><style>.cls-1{fill:#009544;}.cls-2{fill:#82c31e;}</style></defs><g id="レイヤー_2" data-name="レイヤー 2"><g id="Header"><path class="cls-1" d="M16.52,4.76a6.68,6.68,0,1,0,6.68,6.68A6.68,6.68,0,0,0,16.52,4.76Zm0,9.62a2.94,2.94,0,0,1-2.94-2.94,2.9,2.9,0,0,1,.2-1l2.44.95-1-2.53a2.94,2.94,0,1,1,1.33,5.55Z"/><path class="cls-2" d="M32.72,10.73C29.34,4.11,23.13,0,16.52,0S3.7,4.11.32,10.73L0,11.36.32,12c3.38,6.62,9.59,10.74,16.2,10.74S29.34,18.61,32.72,12l.32-.63ZM16.52,20c-5.44,0-10.41-3.2-13.4-8.6,3-5.4,8-8.6,13.4-8.6S26.93,6,29.93,11.36C26.93,16.76,22,20,16.52,20Z"/></g></g></svg>