<svg xmlns="http://www.w3.org/2000/svg" viewBox="0 0 26.82 25.59"><defs><style>.cls-1{fill:#009844;}.cls-2{fill:#85c61e;}</style></defs><g id="レイヤー_2" data-name="レイヤー 2"><g id="Menu"><path class="cls-1" d="M17.8,10.68,16,11.09a.7.7,0,0,1-.67-.22h0a.66.66,0,0,1-.14-.68l.62-1.74a.68.68,0,0,0-.34-.84L12.73,6.27a.68.68,0,0,0-.87.25l-1,1.56a.67.67,0,0,1-.62.32h0A.69.69,0,0,1,9.66,8L8.88,6.35A.67.67,0,0,0,8,6L5.16,7a.67.67,0,0,0-.44.79l.41,1.79a.68.68,0,0,1-.22.67h0a.67.67,0,0,1-.68.13L2.49,9.77a.69.69,0,0,0-.84.35L.31,12.86a.69.69,0,0,0,.25.88l1.56,1a.68.68,0,0,1,.32.63h0a.67.67,0,0,1-.39.58l-1.66.79a.67.67,0,0,0-.35.83l1,2.89a.69.69,0,0,0,.79.44l1.79-.42a.7.7,0,0,1,.67.22h0a.72.72,0,0,1,.14.69l-.62,1.73a.68.68,0,0,0,.34.84l2.75,1.33A.68.68,0,0,0,7.78,25l1-1.56a.72.72,0,0,1,.63-.32h0a.69.69,0,0,1,.58.39l.79,1.66a.66.66,0,0,0,.83.35l2.89-1a.67.67,0,0,0,.44-.79L14.5,22a.7.7,0,0,1,.22-.67h0a.69.69,0,0,1,.69-.13l1.73.62a.68.68,0,0,0,.84-.35l1.33-2.74a.68.68,0,0,0-.25-.87l-1.56-1a.7.7,0,0,1-.32-.63h0a.69.69,0,0,1,.39-.59l1.66-.78A.68.68,0,0,0,19.6,14l-1-2.89A.69.69,0,0,0,17.8,10.68Zm-7,8a3.06,3.06,0,1,1,1.89-3.9A3.07,3.07,0,0,1,10.82,18.67Z"/><path class="cls-1" d="M26.45,5l-1-.35a.54.54,0,0,1-.33-.33h0a.52.52,0,0,1,.05-.47l.56-.89a.53.53,0,0,0,0-.64l-.63-.71a.53.53,0,0,0-.63-.13l-.95.46a.55.55,0,0,1-.47,0h0a.5.5,0,0,1-.29-.37l-.23-1A.52.52,0,0,0,22,.06L21,0a.54.54,0,0,0-.54.36l-.34,1a.57.57,0,0,1-.34.34h0a.58.58,0,0,1-.48-.05l-.88-.57a.54.54,0,0,0-.65.05l-.71.63a.53.53,0,0,0-.12.64l.45.94a.54.54,0,0,1,0,.48h0a.56.56,0,0,1-.37.3l-1,.23a.54.54,0,0,0-.42.49l0,.94a.53.53,0,0,0,.36.54l1,.35a.51.51,0,0,1,.33.34h0a.52.52,0,0,1,0,.47l-.56.89a.53.53,0,0,0,.05.64l.63.71a.54.54,0,0,0,.63.13l.95-.46a.55.55,0,0,1,.47,0h0a.5.5,0,0,1,.29.37l.23,1a.52.52,0,0,0,.49.42l.95.06a.54.54,0,0,0,.54-.36l.34-1a.57.57,0,0,1,.34-.34h0a.56.56,0,0,1,.47,0l.88.57a.54.54,0,0,0,.65,0l.71-.63a.53.53,0,0,0,.12-.64l-.45-.94a.54.54,0,0,1,0-.48h0a.58.58,0,0,1,.37-.3l1-.23a.54.54,0,0,0,.42-.49l0-.94A.53.53,0,0,0,26.45,5Z"/><path class="cls-2" d="M26.45,5l-1-.35a.54.54,0,0,1-.33-.33h0a.52.52,0,0,1,.05-.47l.56-.89a.53.53,0,0,0,0-.64l-.63-.71a.53.53,0,0,0-.63-.13l-.95.46a.55.55,0,0,1-.47,0h0a.5.5,0,0,1-.29-.37l-.23-1A.52.52,0,0,0,22,.06L21,0a.54.54,0,0,0-.54.36l-.34,1a.57.57,0,0,1-.34.34h0a.58.58,0,0,1-.48-.05l-.88-.57a.54.54,0,0,0-.65.05l-.71.63a.53.53,0,0,0-.12.64l.45.94a.54.54,0,0,1,0,.48h0a.56.56,0,0,1-.37.3l-1,.23a.54.54,0,0,0-.42.49l0,.94a.53.53,0,0,0,.36.54l1,.35a.51.51,0,0,1,.33.34h0a.52.52,0,0,1,0,.47l-.56.89a.53.53,0,0,0,.05.64l.63.71a.54.54,0,0,0,.63.13l.95-.46a.55.55,0,0,1,.47,0h0a.5.5,0,0,1,.29.37l.23,1a.52.52,0,0,0,.49.42l.95.06a.54.54,0,0,0,.54-.36l.34-1a.57.57,0,0,1,.34-.34h0a.56.56,0,0,1,.47,0l.88.57a.54.54,0,0,0,.65,0l.71-.63a.53.53,0,0,0,.12-.64l-.45-.94a.54.54,0,0,1,0-.48h0a.58.58,0,0,1,.37-.3l1-.23a.54.54,0,0,0,.42-.49l0-.94A.53.53,0,0,0,26.45,5Z"/></g></g></svg>