<svg xmlns="http://www.w3.org/2000/svg" viewBox="0 0 34.09 23.44"><defs><style>.cls-1{fill:#009544;}.cls-2{fill:#82c31e;}.cls-3{fill:#fff;}</style></defs><g id="レイヤー_2" data-name="レイヤー 2"><g id="Menu"><path class="cls-1" d="M6.75,18.94,3,23.44,11,19.89a13.36,13.36,0,0,0,5.21.36c4.62-.36,10.91-2.74,10.91-10.12C27.13,3.73,21.81,0,14.89,0S-.17,2.59,0,10.37C.12,15.36,3.74,18,6.75,18.94Z"/><path class="cls-2" d="M24.86,1s9.23.47,9.23,9.35c0,9.24-10.65,9.59-10.65,9.59a10.63,10.63,0,0,0,6.39-9.76C29.83,4.25,24.86,1,24.86,1Z"/><circle class="cls-3" cx="8.05" cy="10.18" r="1.89"/><circle class="cls-3" cx="14.09" cy="10.18" r="1.89"/><circle class="cls-3" cx="20.13" cy="10.18" r="1.89"/></g></g></svg>