<svg xmlns="http://www.w3.org/2000/svg" viewBox="0 0 30.53 19.39"><defs><style>.cls-1{fill:#009844;}</style></defs><g id="レイヤー_2" data-name="レイヤー 2"><g id="Contents"><path class="cls-1" d="M7.33,14.54A1.44,1.44,0,0,1,8.7,13.11v-2a1.43,1.43,0,0,1,0-2.86v-2a1.43,1.43,0,0,1,0-2.86v-2A1.43,1.43,0,0,1,7.33,0H0V19.39H7.33A1.43,1.43,0,0,1,8.7,18V16A1.44,1.44,0,0,1,7.33,14.54Z"/><path class="cls-1" d="M12.89,0a1.44,1.44,0,0,1-1.43,1.44H11.4v2h.06a1.44,1.44,0,0,1,0,2.87H11.4v2h.06a1.44,1.44,0,0,1,0,2.87H11.4v2h.06a1.44,1.44,0,0,1,0,2.87H11.4v2h.06a1.43,1.43,0,0,1,1.43,1.43H30.53V0Z"/></g></g></svg>