<svg xmlns="http://www.w3.org/2000/svg" viewBox="0 0 22.7 25.97"><defs><style>.cls-1{fill:#009844;}.cls-2{fill:#85c61e;}</style></defs><g id="レイヤー_2" data-name="レイヤー 2"><g id="hover"><path class="cls-1" d="M6.55,0V5.56H8.24V1.7h12l-3.8,2.56a1.56,1.56,0,0,0-.68,1.3V20.08H8.24V18H6.55v3.79h9.16v3.6a.59.59,0,0,0,.32.53.63.63,0,0,0,.62,0l6.05-4.1V0Z"/><path class="cls-1" d="M6.67,15.35a.29.29,0,0,0,.16.26.29.29,0,0,0,.31,0l4.73-4-4.73-4a.29.29,0,0,0-.31,0,.28.28,0,0,0-.16.26v2H0v3.52H6.67v2Z"/><path class="cls-2" d="M6.67,15.35a.29.29,0,0,0,.16.26.29.29,0,0,0,.31,0l4.73-4-4.73-4a.29.29,0,0,0-.31,0,.28.28,0,0,0-.16.26v2H0v3.52H6.67v2Z"/></g></g></svg>