<svg xmlns="http://www.w3.org/2000/svg" viewBox="0 0 21.3 21.3"><defs><style>.cls-1{fill:#009844;}.cls-2{fill:#85c61e;}</style></defs><g id="レイヤー_2" data-name="レイヤー 2"><g id="Menu"><path class="cls-1" d="M4.45,17.13H7.81a.42.42,0,0,0,.43-.39v-6a.42.42,0,0,0-.43-.4H4.45a.41.41,0,0,0-.42.4v6A.41.41,0,0,0,4.45,17.13Z"/><path class="cls-1" d="M10.57,17.13h3.35a.41.41,0,0,0,.43-.39V6.56a.41.41,0,0,0-.43-.4H10.57a.42.42,0,0,0-.43.4V16.74A.42.42,0,0,0,10.57,17.13Z"/><path class="cls-1" d="M16.69,17.13H20a.41.41,0,0,0,.43-.39v-15a.41.41,0,0,0-.43-.4H16.69a.41.41,0,0,0-.43.4v15A.41.41,0,0,0,16.69,17.13Z"/><polygon class="cls-1" points="20.61 18.93 2.37 18.93 2.37 0.69 2.37 0 0 0 0 0.69 0 18.93 0 20.61 0 21.3 0.69 21.3 2.37 21.3 20.61 21.3 21.3 21.3 21.3 18.93 20.61 18.93"/><path class="cls-2" d="M4.45,17.13H7.81a.42.42,0,0,0,.43-.39v-6a.42.42,0,0,0-.43-.4H4.45a.41.41,0,0,0-.42.4v6A.41.41,0,0,0,4.45,17.13Z"/><path class="cls-2" d="M10.57,17.13h3.35a.41.41,0,0,0,.43-.39V6.56a.41.41,0,0,0-.43-.4H10.57a.42.42,0,0,0-.43.4V16.74A.42.42,0,0,0,10.57,17.13Z"/><path class="cls-2" d="M16.69,17.13H20a.41.41,0,0,0,.43-.39v-15a.41.41,0,0,0-.43-.4H16.69a.41.41,0,0,0-.43.4v15A.41.41,0,0,0,16.69,17.13Z"/></g></g></svg>