<svg xmlns="http://www.w3.org/2000/svg" viewBox="0 0 17.87 22.8"><defs><style>.cls-1{fill:#82c31e;}.cls-2{fill:#009544;}</style></defs><g id="レイヤー_2" data-name="レイヤー 2"><g id="Contents"><path class="cls-1" d="M17.09,3.11a9.13,9.13,0,0,1-1.93-.54,18.33,18.33,0,0,0-3.6-.68L11.44,1A1.17,1.17,0,0,0,10.3,0H7.57A1.17,1.17,0,0,0,6.43,1l-.12.86a18.33,18.33,0,0,0-3.6.68,9.13,9.13,0,0,1-1.93.54A1.08,1.08,0,0,0,0,4.17v.74H17.87V4.17A1.08,1.08,0,0,0,17.09,3.11Z"/><path class="cls-2" d="M1.48,20.69a2.31,2.31,0,0,0,2.3,2.11H14.09a2.31,2.31,0,0,0,2.3-2.11L17.53,6.12H.34ZM12.77,9.35a.68.68,0,1,1,1.35.08l-.64,10.66a.69.69,0,0,1-.72.64.68.68,0,0,1-.64-.72Zm-4.51,0a.68.68,0,1,1,1.35,0V20.05a.68.68,0,1,1-1.35,0ZM4.39,8.71a.67.67,0,0,1,.71.64L5.75,20a.68.68,0,1,1-1.35.08L3.75,9.43A.68.68,0,0,1,4.39,8.71Z"/></g></g></svg>