<svg xmlns="http://www.w3.org/2000/svg" viewBox="0 0 26.56 24.31"><defs><style>.cls-1{fill:#009544;}.cls-2{fill:#82c31e;}</style></defs><g id="レイヤー_2" data-name="レイヤー 2"><g id="Menu"><path class="cls-1" d="M6.24,6.88A2,2,0,0,0,9.57,5.5V0H5.66V5.5A1.93,1.93,0,0,0,6.24,6.88Z"/><path class="cls-1" d="M13.28,7.45a1.91,1.91,0,0,0,1.38-.57,1.93,1.93,0,0,0,.58-1.38V0H11.32V5.5a2,2,0,0,0,.58,1.38A1.91,1.91,0,0,0,13.28,7.45Z"/><path class="cls-1" d="M2,7.45a1.93,1.93,0,0,0,1.38-.57A2,2,0,0,0,3.91,5.5V0H0V5.5A2,2,0,0,0,.57,6.88,1.93,1.93,0,0,0,2,7.45Z"/><path class="cls-1" d="M18.94,7.45a1.93,1.93,0,0,0,1.39-.57A2,2,0,0,0,20.9,5.5V0H17V5.5a2,2,0,0,0,.57,1.38A1.93,1.93,0,0,0,18.94,7.45Z"/><path class="cls-1" d="M21.77,7.89a3.71,3.71,0,0,1-5.66,0,3.71,3.71,0,0,1-5.66,0,3.71,3.71,0,0,1-5.66,0A3.71,3.71,0,0,1,2,9.2a3.65,3.65,0,0,1-2-.56V24.31H8.41V18.64h9.74v5.67h8.41V8.64a3.64,3.64,0,0,1-1.95.56A3.72,3.72,0,0,1,21.77,7.89Zm-14.33,7H4.52V11.51H7.44Zm7.3,0H11.82V11.51h2.92Zm7.3,0H19.12V11.51H22Z"/><path class="cls-1" d="M22.65,0V5.5a2,2,0,0,0,.57,1.38,2,2,0,0,0,2.77,0,2,2,0,0,0,.57-1.38h0V0Z"/><path class="cls-2" d="M6.24,6.88A2,2,0,0,0,9.57,5.5V0H5.66V5.5A1.93,1.93,0,0,0,6.24,6.88Z"/><path class="cls-2" d="M13.28,7.45a1.91,1.91,0,0,0,1.38-.57,1.93,1.93,0,0,0,.58-1.38V0H11.32V5.5a2,2,0,0,0,.58,1.38A1.91,1.91,0,0,0,13.28,7.45Z"/><path class="cls-2" d="M2,7.45a1.93,1.93,0,0,0,1.38-.57A2,2,0,0,0,3.91,5.5V0H0V5.5A2,2,0,0,0,.57,6.88,1.93,1.93,0,0,0,2,7.45Z"/><path class="cls-2" d="M18.94,7.45a1.93,1.93,0,0,0,1.39-.57A2,2,0,0,0,20.9,5.5V0H17V5.5a2,2,0,0,0,.57,1.38A1.93,1.93,0,0,0,18.94,7.45Z"/><path class="cls-2" d="M22.65,0V5.5a2,2,0,0,0,.57,1.38,2,2,0,0,0,2.77,0,2,2,0,0,0,.57-1.38h0V0Z"/></g></g></svg>