<svg xmlns="http://www.w3.org/2000/svg" viewBox="0 0 23.91 20.17"><defs><style>.cls-1{fill:#009844;}.cls-2{fill:#85c61e;}</style></defs><g id="レイヤー_2" data-name="レイヤー 2"><g id="Menu"><path class="cls-1" d="M4.32,11.87V3.94H2A2,2,0,0,0,0,6v9.64A2,2,0,0,0,2,17.7h2.9v2.12a.36.36,0,0,0,.21.33.34.34,0,0,0,.37-.08L7.83,17.7h5a2,2,0,0,0,2-2.06H8A3.75,3.75,0,0,1,4.32,11.87Z"/><path class="cls-1" d="M21.61,0H8a2.33,2.33,0,0,0-2.3,2.34v9.53A2.34,2.34,0,0,0,8,14.22h7.69l3.52,3.55a.39.39,0,0,0,.67-.29V14.22h1.69a2.34,2.34,0,0,0,2.3-2.35V2.34A2.33,2.33,0,0,0,21.61,0Z"/><path class="cls-2" d="M4.32,11.87V3.94H2A2,2,0,0,0,0,6v9.64A2,2,0,0,0,2,17.7h2.9v2.12a.36.36,0,0,0,.21.33.34.34,0,0,0,.37-.08L7.83,17.7h5a2,2,0,0,0,2-2.06H8A3.75,3.75,0,0,1,4.32,11.87Z"/></g></g></svg>