<svg xmlns="http://www.w3.org/2000/svg" viewBox="0 0 24.84 28.8"><defs><style>.cls-1{fill:#009844;}.cls-2{fill:#85c61e;}</style></defs><g id="レイヤー_2" data-name="レイヤー 2"><g id="Header"><path class="cls-1" d="M24.63,21.12a17.33,17.33,0,0,1-4-10,8.78,8.78,0,0,0-6.27-7.54,2.32,2.32,0,1,0-3.94,0,8.8,8.8,0,0,0-6.27,7.54,17.33,17.33,0,0,1-4,10c-1.43,1.63,4.58,4.12,12.21,4.12S26.06,22.75,24.63,21.12ZM12.83,2.73a.58.58,0,0,1-.82,0,.61.61,0,0,1-.17-.41.58.58,0,0,1,1-.41.58.58,0,0,1,0,.82Z"/><path class="cls-1" d="M15.69,28.8a3,3,0,0,0,3-3,35,35,0,0,1-5.9.56A3,3,0,0,0,15.69,28.8Z"/><path class="cls-2" d="M15.69,28.8a3,3,0,0,0,3-3,35,35,0,0,1-5.9.56A3,3,0,0,0,15.69,28.8Z"/></g></g></svg>