<svg xmlns="http://www.w3.org/2000/svg" viewBox="0 0 29.46 29.58"><defs><style>.cls-1{fill:#009544;}.cls-2{fill:#82c31e;}</style></defs><g id="レイヤー_2" data-name="レイヤー 2"><g id="Contents"><path class="cls-1" d="M28.76,25.5,24.29,21l-3.38,3.38,4.47,4.47a2.38,2.38,0,0,0,1.69.7,2.39,2.39,0,0,0,2.39-2.39A2.38,2.38,0,0,0,28.76,25.5Z"/><path class="cls-1" d="M22.42,20.34,20.1,18h0a11.25,11.25,0,0,0,2.31-6.79A11.21,11.21,0,0,0,3.28,3.28a11.21,11.21,0,0,0,0,15.85,11.12,11.12,0,0,0,7.93,3.28h0A11.24,11.24,0,0,0,18,20.1h0l2.33,2.32Zm-5.88-3.8A7.54,7.54,0,1,1,11.2,3.66h0a7.54,7.54,0,0,1,5.33,12.88Z"/><path class="cls-2" d="M28.76,25.5,24.29,21l-3.38,3.38,4.47,4.47a2.38,2.38,0,0,0,1.69.7,2.39,2.39,0,0,0,2.39-2.39A2.38,2.38,0,0,0,28.76,25.5Z"/></g></g></svg>