<svg xmlns="http://www.w3.org/2000/svg" viewBox="0 0 32.06 24.23"><defs><style>.cls-1{fill:#009844;}</style></defs><g id="レイヤー_2" data-name="レイヤー 2"><g id="Contents"><path class="cls-1" d="M22.09,0H10a10,10,0,1,0,0,20H19.5c1.43,0,1.87.66,1.87,1.2A2.77,2.77,0,0,1,20,23.42c-.62.45-.13.81.36.81,6.36,0,11.75-6.95,11.75-14.26A10,10,0,0,0,22.09,0ZM8.46,11.87A1.9,1.9,0,1,1,10.35,10,1.9,1.9,0,0,1,8.46,11.87Zm7.57,0a1.9,1.9,0,1,1,1.9-1.9A1.9,1.9,0,0,1,16,11.87Zm7.57,0A1.9,1.9,0,1,1,25.5,10,1.9,1.9,0,0,1,23.6,11.87Z"/></g></g></svg>