<svg xmlns="http://www.w3.org/2000/svg" viewBox="0 0 20.52 20.52"><defs><style>.cls-1{fill:#009444;}</style></defs><g id="レイヤー_2" data-name="レイヤー 2"><g id="Contents"><path class="cls-1" d="M10.26,0A10.26,10.26,0,1,0,20.52,10.26,10.26,10.26,0,0,0,10.26,0Zm6.32,16.58a8.93,8.93,0,1,1,2.62-6.32A8.9,8.9,0,0,1,16.58,16.58Z"/><path class="cls-1" d="M5.85,7.68a.74.74,0,0,0,.08,1l3.66,2.82.05,0h0a.83.83,0,0,0,1-.22l0,0L15.18,6a.66.66,0,0,0,0-.92.66.66,0,0,0-.91.12L10.09,9.71,6.86,7.45A.74.74,0,0,0,5.85,7.68Z"/><path class="cls-1" d="M4,10.26c0-.14,0-.28,0-.41H2.41c0,.13,0,.27,0,.41s0,.27,0,.41H4C4,10.53,4,10.4,4,10.26Z"/><path class="cls-1" d="M9.85,16.48v1.63h.82V16.46H9.85Z"/><path class="cls-1" d="M10.67,4V2.41H9.85V4.06h.82Z"/><path class="cls-1" d="M18.11,9.85H16.46v.82h1.65c0-.14,0-.27,0-.41S18.12,10,18.11,9.85Z"/></g></g></svg>