<svg xmlns="http://www.w3.org/2000/svg" viewBox="0 0 25.12 32"><defs><style>.cls-1{fill:#82c31e;}.cls-2{fill:#009544;}</style></defs><g id="レイヤー_2" data-name="レイヤー 2"><g id="Menu"><path class="cls-1" d="M4.29,18a1,1,0,0,0,.34.06h0a1,1,0,0,0,.66-.25c.41-.34.6-.93.31-2.77-.27-1.64-.67-2.5-1.37-2.87a1.63,1.63,0,0,0-.47-.16A11.11,11.11,0,0,1,6.63,4.31a8.09,8.09,0,0,1,5.93-2.45,8.09,8.09,0,0,1,5.93,2.45,11.12,11.12,0,0,1,2.88,7.74,1.6,1.6,0,0,0-.48.16c-.69.37-1.1,1.23-1.36,2.87a8.56,8.56,0,0,0-.14,1.65,8.25,8.25,0,0,1-3.1.78,1.39,1.39,0,0,0-1.19-.68h-.92a1.39,1.39,0,0,0,0,2.78h.92a1.38,1.38,0,0,0,1.26-.8,9.56,9.56,0,0,0,3.57-.89,1,1,0,0,0,.57.18,1,1,0,0,0,.33-.06c.74-.24,2.29-1.92,2.39-5.54A13.07,13.07,0,0,0,19.83,3a9.91,9.91,0,0,0-7.27-3A9.89,9.89,0,0,0,5.3,3,13.08,13.08,0,0,0,1.9,12.5C2,16.12,3.56,17.8,4.29,18Z"/><path class="cls-2" d="M24.86,28.56a4,4,0,0,0-2.28-2.93l-5-2.05a2.26,2.26,0,0,1-1.31-2v-.4l-.13.05a3.32,3.32,0,0,1-1,.17h-.92a3.13,3.13,0,1,1,0-6.26h.92a3.07,3.07,0,0,1,1.79.57l0,0h0a4.46,4.46,0,0,0,1.8-.61l.33-.49a9.79,9.79,0,0,0,.48-2.88c0-4.67-2.95-8.06-7-8.06s-7,3.39-7,8.06c0,3.86,3.14,8.09,3.16,8.11a3,3,0,0,1,.16,1v.73a2.25,2.25,0,0,1-1.3,2l-5,2.05A4,4,0,0,0,.27,28.57L0,32H25.12Z"/></g></g></svg>