<svg xmlns="http://www.w3.org/2000/svg" viewBox="0 0 25.81 28.5"><defs><style>.cls-1{fill:#009844;}.cls-2{fill:#85c61e;}</style></defs><g id="レイヤー_2" data-name="レイヤー 2"><g id="Menu"><path class="cls-1" d="M12.93,5.37a2.69,2.69,0,1,0-2.68-2.69A2.68,2.68,0,0,0,12.93,5.37Z"/><path class="cls-1" d="M15.26,6.64H10.55A3,3,0,0,0,7.83,9.36v9A1.17,1.17,0,0,0,9,19.55h.82l.45,7.7a1.25,1.25,0,0,0,1.25,1.25h2.74a1.25,1.25,0,0,0,1.25-1.25l.45-7.7h.82A1.17,1.17,0,0,0,18,18.38v-9A3,3,0,0,0,15.26,6.64Z"/><path class="cls-1" d="M4.45,8.3A2.35,2.35,0,1,0,2.11,6,2.35,2.35,0,0,0,4.45,8.3Z"/><path class="cls-1" d="M21.4,8.3A2.35,2.35,0,1,0,19.06,6,2.35,2.35,0,0,0,21.4,8.3Z"/><path class="cls-1" d="M6.29,9.41H2.37A2.63,2.63,0,0,0,0,11.78v7.88a1,1,0,0,0,1,1h.72l.39,6.72A1.09,1.09,0,0,0,3.23,28.5H5.62a1.09,1.09,0,0,0,1.1-1.09l.39-6.72v-.38a2.73,2.73,0,0,1-.82-1.93Z"/><path class="cls-1" d="M23.43,9.41H19.51v9a2.72,2.72,0,0,1-.81,1.93v.38l.39,6.72a1.09,1.09,0,0,0,1.09,1.09h2.4a1.09,1.09,0,0,0,1.09-1.09l.39-6.72h.72a1,1,0,0,0,1-1V11.78A2.63,2.63,0,0,0,23.43,9.41Z"/><path class="cls-2" d="M4.45,8.3A2.35,2.35,0,1,0,2.11,6,2.35,2.35,0,0,0,4.45,8.3Z"/><path class="cls-2" d="M21.4,8.3A2.35,2.35,0,1,0,19.06,6,2.35,2.35,0,0,0,21.4,8.3Z"/><path class="cls-2" d="M6.29,9.41H2.37A2.63,2.63,0,0,0,0,11.78v7.88a1,1,0,0,0,1,1h.72l.39,6.72A1.09,1.09,0,0,0,3.23,28.5H5.62a1.09,1.09,0,0,0,1.1-1.09l.39-6.72v-.38a2.73,2.73,0,0,1-.82-1.93Z"/><path class="cls-2" d="M23.43,9.41H19.51v9a2.72,2.72,0,0,1-.81,1.93v.38l.39,6.72a1.09,1.09,0,0,0,1.09,1.09h2.4a1.09,1.09,0,0,0,1.09-1.09l.39-6.72h.72a1,1,0,0,0,1-1V11.78A2.63,2.63,0,0,0,23.43,9.41Z"/></g></g></svg>