<svg xmlns="http://www.w3.org/2000/svg" viewBox="0 0 28.5 21.43"><defs><style>.cls-1{fill:#009844;}</style></defs><g id="レイヤー_2" data-name="レイヤー 2"><g id="Contents"><polygon class="cls-1" points="28.5 12.9 24.82 9.07 28.5 5.91 28.5 12.9"/><polygon class="cls-1" points="3.68 9.07 0 12.9 0 5.91 3.68 9.07"/><path class="cls-1" d="M28.5,16.37v3.52A1.54,1.54,0,0,1,27,21.43H1.54A1.54,1.54,0,0,1,0,19.89V16.37l5.51-5.72,6.29,5.42a3.88,3.88,0,0,0,4.9,0L23,10.65Z"/><path class="cls-1" d="M28.5,1.54V3.08L15.06,14.65a1.29,1.29,0,0,1-1.62,0L0,3.08V1.54A1.54,1.54,0,0,1,1.54,0H27A1.54,1.54,0,0,1,28.5,1.54Z"/></g></g></svg>