<svg xmlns="http://www.w3.org/2000/svg" viewBox="0 0 29.27 22.1"><defs><style>.cls-1{fill:#009544;}.cls-2{fill:#82c31e;}</style></defs><g id="レイヤー_2" data-name="レイヤー 2"><g id="Menu"><polygon class="cls-1" points="11.97 2.76 8.29 0 0 0 0 2.49 0 2.87 0 18.38 2.76 13.74 2.76 5.53 22.1 5.53 22.1 7.37 24.86 7.37 24.86 2.76 11.97 2.76"/><path class="cls-1" d="M29.27,9.54l-4.6,8.39-2,3.75a.85.85,0,0,1-.61.42H.92a.44.44,0,0,1-.5-.41h0L7,9.54c.11-.21.17-.33.39-.33H28.88A.36.36,0,0,1,29.27,9.54Z"/><polygon class="cls-2" points="11.97 2.76 8.29 0 0 0 0 2.49 0 2.87 0 18.38 2.76 13.74 2.76 5.53 22.1 5.53 22.1 7.37 24.86 7.37 24.86 2.76 11.97 2.76"/></g></g></svg>