<svg xmlns="http://www.w3.org/2000/svg" viewBox="0 0 27.83 29.84"><defs><style>.cls-1{fill:#009444;}.cls-2{fill:#81c21e;}</style></defs><g id="レイヤー_2" data-name="レイヤー 2"><g id="_2" data-name="2"><path class="cls-1" d="M3.33,24a1.06,1.06,0,0,1-1.07-1.06V10.21H8.77a1.31,1.31,0,0,0,1.3-1.31V2.39h9.5a1.05,1.05,0,0,1,1.06,1.06V14.21h.28c.37,0,1.58.28,2,.35V2.63A2.64,2.64,0,0,0,20.24,0H9.56A2.87,2.87,0,0,0,7.51.85L.85,7.51A2.87,2.87,0,0,0,0,9.56V23.74a2.63,2.63,0,0,0,2.63,2.63h10A18.05,18.05,0,0,1,11.79,24Z"/><path class="cls-2" d="M20.77,15.71a7.07,7.07,0,1,0,7.06,7.07A7.08,7.08,0,0,0,20.77,15.71Zm4.1,5.11L21.1,25.39a1.4,1.4,0,0,1-1,.53,1.44,1.44,0,0,1-1.05-.35l-2.29-2.06a1,1,0,0,1-.29-.61.87.87,0,0,1,.23-.63l.31-.34a.87.87,0,0,1,1.23-.05l1.92,1.76,3.88-3.59a.56.56,0,0,1,.81.77Z"/><rect class="cls-1" x="7.22" y="11.77" width="8.45" height="2.08"/><polygon class="cls-1" points="13.58 17.9 7.22 17.9 7.22 15.82 15.67 15.82 13.58 17.9"/><rect class="cls-1" x="11.62" y="7.72" width="3.93" height="2.08"/></g></g></svg>