<svg xmlns="http://www.w3.org/2000/svg" viewBox="0 0 30.79 30.23"><defs><style>.cls-1{fill:#009844;}</style></defs><g id="レイヤー_2" data-name="レイヤー 2"><g id="Contents"><path class="cls-1" d="M25.38.08C19,1,12.82,13,9.8,18.57c-.76,1.4.57,2.13,1.35.79.56-1,1.93-3.76,2.67-3.61,3.54.58,5.42-1.72,4.08-3.17,4.5.09,6.73-2.38,5.45-3.89a6.67,6.67,0,0,0,5-.58C32.07,6.11,31.85-.81,25.38.08Z"/><path class="cls-1" d="M24.61,12.17a9.18,9.18,0,0,1-2.5,1.67V26.29a1,1,0,0,1-1,1H3.93A1,1,0,0,1,3.24,27a.93.93,0,0,1-.29-.7V9.1a1,1,0,0,1,1-1h9.65c.67-1,1.36-2,2.07-2.95H3.93A3.93,3.93,0,0,0,0,9.1V26.29a3.93,3.93,0,0,0,3.93,3.94h17.2a3.93,3.93,0,0,0,3.93-3.94V12.11S24.9,11.9,24.61,12.17Z"/></g></g></svg>