<svg xmlns="http://www.w3.org/2000/svg" viewBox="0 0 28.5 32.84"><defs><style>.cls-1{fill:#009844;}</style></defs><g id="レイヤー_2" data-name="レイヤー 2"><g id="Contents"><polygon class="cls-1" points="28.5 24.31 28.5 17.32 24.82 20.49 28.5 24.31"/><polygon class="cls-1" points="0 17.32 0 24.32 3.68 20.49 0 17.32"/><path class="cls-1" d="M16.7,27.49a3.88,3.88,0,0,1-4.9,0L5.51,22.07,0,27.79V31.3a1.54,1.54,0,0,0,1.54,1.54H27A1.54,1.54,0,0,0,28.5,31.3V27.79L23,22.07Z"/><path class="cls-1" d="M15.06.28a1.32,1.32,0,0,0-1.62,0L0,11.86v2.63L13.44,26.07a1.29,1.29,0,0,0,1.62,0L28.5,14.49V11.86Z"/></g></g></svg>