<svg width="50" height="50" viewBox="0 0 50 50" fill="none" xmlns="http://www.w3.org/2000/svg">
<path d="M20 0.15625C6.80078 1.47266 2 11.5352 2 21C2 25.2656 3.28125 29.3789 5.6875 32.875C7.86328 36.0391 9 39.5898 9 43.1875V50H33V44.7812L35 44.9062C37.332 45.1211 39.5625 44.3789 41.2812 42.8125C43.0078 41.2383 44 38.9609 44 36.5938V31.8125L47.5 30.0625C48.1719 29.6914 48.6406 29.1016 48.8438 28.375C49.043 27.6523 48.9414 26.8711 48.5625 26.1875L43.9688 18.2812C42.6094 7.33984 36.4102 1.13672 26 0.15625V17.5938C28.9297 18.7852 31 21.6484 31 25C31 26.7852 30.3984 28.418 29.4062 29.75L34.5938 33.3438C35.0117 33.1211 35.4961 33 36 33C37.6523 33 39 34.3477 39 36C39 37.6523 37.6523 39 36 39C34.3477 39 33 37.6523 33 36C33 35.5898 33.0703 35.1992 33.2188 34.8438L28 31.2188C26.6289 32.3242 24.8984 33 23 33C18.5898 33 15 29.4102 15 25C15 21.6484 17.0703 18.7852 20 17.5938V0.15625ZM23 19C19.6914 19 17 21.6914 17 25C17 28.3086 19.6914 31 23 31C26.3086 31 29 28.3086 29 25C29 21.6914 26.3086 19 23 19ZM23 21C25.207 21 27 22.793 27 25C27 27.207 25.207 29 23 29C20.793 29 19 27.207 19 25C19 22.793 20.793 21 23 21ZM23 23C21.8945 23 21 23.8945 21 25C21 26.1055 21.8945 27 23 27C24.1055 27 25 26.1055 25 25C25 23.8945 24.1055 23 23 23Z" fill="#146CE0"/>
</svg>
