<svg width="77" height="86" viewBox="0 0 77 86" fill="none" xmlns="http://www.w3.org/2000/svg">
<path d="M76.7042 29.8141V47.5271H49.1302L48.9676 47.3617L54.8051 41.5253L48.873 35.5944L63.4656 35.4377L38.0964 10.0828L33.8105 14.3707L48.8346 29.3916L42.8137 29.5364L39.5003 26.2237L28.1031 26.5014L22.0438 20.4434L33.5948 20.3194L21.9492 8.67613L30.3317 0.29541H47.1794L76.7042 29.8141Z" fill="#222222"/>
<path d="M76.9994 47.8227H49.0057L48.5652 47.3588L54.3999 41.5253L48.1928 35.3049L62.7852 35.1482L38.1226 10.4996L34.2536 14.3678L49.5584 29.6694L42.7187 29.832L39.4054 26.5222L28.0081 26.7999L21.3369 20.1539L32.888 20.0299L21.5291 8.67329L30.2072 0H47.3002L76.9994 29.6902V47.8227ZM49.5111 47.2317H76.4083V29.9353L47.0549 0.591025H30.4525L22.3656 8.67329L34.3009 20.6061L22.7498 20.7302L28.2209 26.2001L39.6183 25.9223L42.9316 29.235L48.1367 29.1108L33.3904 14.3708L38.096 9.66326L64.1715 35.7246L49.5791 35.8811L55.2216 41.5253L49.5111 47.2317Z" fill="#222222"/>
<path d="M21.922 20.7447L15.6914 14.5094L21.9635 8.25635L34.3156 20.6058L21.922 20.7447ZM16.528 14.5094L22.1645 20.1536L32.8879 20.0384L21.9517 9.10448L16.528 14.5094Z" fill="#222222"/>
<path d="M31.296 30.1127L27.4062 26.2208L39.6194 25.9253L43.5121 29.8172L31.296 30.1127ZM28.7984 26.7794L31.5355 29.5127L42.117 29.2557L39.3801 26.5221L28.7984 26.7794Z" fill="#222222"/>
<path d="M48.9673 47.7789L36.6152 35.4295L48.9938 35.2964L55.2216 41.5259L48.9673 47.7789ZM38.0309 36.0057L48.9673 46.9397L54.3851 41.5229L48.7515 35.8874L38.0309 36.0057Z" fill="#222222"/>
<path d="M43.1881 47.7491L38.8994 52.0339L13.5332 26.6819L28.1256 26.5254L34.1849 32.5834L28.1641 32.7282L43.1881 47.7491Z" fill="#222222"/>
<path d="M38.9007 52.4505L12.8281 26.3922L28.2483 26.2266L34.8839 32.8609L28.863 33.0057L43.6093 47.7488L38.9007 52.4505ZM14.241 26.9684L38.9007 51.617L42.7727 47.7488L27.4679 32.4501L33.4888 32.3054L28.0058 26.8206L14.241 26.9684Z" fill="#222222"/>
<path d="M46.7923 62.1172H29.6992L0 32.427V14.2974H27.9909L40.3843 26.6882L14.2408 26.969L38.9006 51.6177L42.7726 47.7494L27.4676 32.4506L45.7047 32.0075L45.7933 32.0962L61.308 47.6076L46.7923 62.1172ZM29.9447 61.5261H46.547L60.4716 47.6046L45.4652 32.6014L28.8627 33.0034L43.609 47.7464L38.9006 52.451L12.8279 26.3926L38.9714 26.0971L27.7396 14.8677H0.591148V32.1818L29.9447 61.5261Z" fill="#222222"/>
<path d="M19.8682 71.5431L20.143 74.9266H19.8682C19.6661 74.213 19.2938 73.5589 18.7834 73.0205C18.455 72.7117 18.0686 72.4709 17.6465 72.3121C17.2244 72.1534 16.775 72.0797 16.3243 72.0957C15.7085 72.0675 15.0961 72.2028 14.5495 72.4877C14.0029 72.7726 13.5414 73.1971 13.2119 73.7179C12.601 74.6899 12.2924 75.8212 12.3252 76.9686C12.312 77.9338 12.5139 78.8898 12.9163 79.7672C13.0816 80.1285 13.2911 80.468 13.54 80.7777C13.7737 81.0716 14.0485 81.3303 14.3558 81.5461C14.6561 81.7549 14.9845 81.92 15.3312 82.0366C15.69 82.1536 16.0652 82.2124 16.4425 82.211C16.8278 82.2124 17.2117 82.1616 17.5835 82.0602C17.9578 81.9566 18.318 81.8077 18.6563 81.6171V78.523C18.6587 78.3019 18.6478 78.0809 18.6238 77.8611C18.6106 77.7247 18.5798 77.5906 18.5322 77.4622C18.5011 77.3737 18.447 77.2952 18.3755 77.2345C18.3057 77.1798 18.2305 77.1323 18.1509 77.0927C17.8643 76.9809 17.5563 76.9345 17.2494 76.9568V76.6613H21.3875V76.9568H21.1895C21.0347 76.954 20.8804 76.9739 20.7312 77.016C20.6058 77.056 20.4961 77.1346 20.418 77.2405C20.323 77.3834 20.2623 77.5462 20.2406 77.7163C20.198 77.9831 20.1792 78.2529 20.1845 78.523V81.8002C19.8877 81.9617 19.5817 82.1057 19.2682 82.2318C18.9794 82.3497 18.6832 82.4483 18.3815 82.5273C18.0752 82.6044 17.7642 82.6618 17.4504 82.6987C17.1127 82.7351 16.7733 82.7528 16.4337 82.7518C14.3646 82.7518 12.7882 82.0879 11.7045 80.7601C10.9075 79.7902 10.4792 78.5696 10.4956 77.3144C10.4955 76.9471 10.5321 76.5809 10.6049 76.221C10.6788 75.8559 10.7846 75.4978 10.9212 75.1512C11.0575 74.802 11.2268 74.4666 11.4266 74.1495C11.6241 73.835 11.8486 73.5384 12.0976 73.2629C12.5927 72.697 13.2104 72.2514 13.9035 71.9596C14.8323 71.6083 15.8293 71.4749 16.8179 71.5696C16.9988 71.5873 17.1784 71.6159 17.3558 71.6553C17.5422 71.6972 17.7257 71.7506 17.9056 71.8148L18.5884 72.0542C18.7759 72.1391 18.9752 72.1949 19.1796 72.2198C19.2302 72.2204 19.2803 72.2079 19.3248 72.1835C19.3693 72.1593 19.4068 72.1238 19.4337 72.0808C19.5266 71.9162 19.5725 71.7291 19.5668 71.5401L19.8682 71.5431Z" fill="#222222"/>
<path d="M24.624 75.0539V80.8696C24.624 81.1001 24.624 81.2893 24.6475 81.4341C24.6592 81.5537 24.684 81.6716 24.7214 81.7857C24.7435 81.8622 24.7853 81.9314 24.8427 81.9866C24.8957 82.0334 24.9532 82.075 25.0141 82.1108C25.2393 82.1999 25.4818 82.2373 25.7235 82.2201V82.5156H22.2062V82.2201C22.3532 82.2229 22.5005 82.2151 22.6465 82.1965C22.7422 82.1866 22.8354 82.1596 22.9215 82.1167C22.9867 82.0853 23.0434 82.0387 23.0869 81.9807C23.1325 81.9171 23.1712 81.8487 23.2021 81.7768C23.2956 81.4839 23.3337 81.1764 23.3145 80.8696V78.0741C23.3145 77.616 23.3145 77.2555 23.2909 76.9896C23.284 76.7901 23.2552 76.5918 23.2051 76.3985C23.1962 76.3472 23.1762 76.2984 23.1467 76.2556C23.1171 76.2128 23.0785 76.1768 23.0337 76.1502C22.9403 76.1113 22.8394 76.0931 22.7381 76.0971C22.5534 76.1058 22.3715 76.1457 22.2002 76.2153L22.0908 75.9197L24.2721 75.0333L24.624 75.0539ZM23.9707 71.2773C24.0722 71.2787 24.1726 71.2998 24.2663 71.3394C24.3618 71.3785 24.4483 71.4369 24.5204 71.5108C24.5924 71.5827 24.6496 71.6681 24.689 71.7619C24.7318 71.8602 24.7539 71.9664 24.7539 72.0737C24.7539 72.1809 24.7318 72.2871 24.689 72.3854C24.6491 72.4808 24.5919 72.5679 24.5204 72.6425C24.4484 72.7173 24.362 72.7767 24.2663 72.8169C24.1679 72.8599 24.0617 72.8819 23.9544 72.8819C23.8472 72.8819 23.741 72.8599 23.6426 72.8169C23.4488 72.7335 23.2944 72.5792 23.2111 72.3854C23.1459 72.2378 23.1273 72.0738 23.158 71.9154C23.1886 71.7569 23.267 71.6116 23.3825 71.4989C23.4553 71.4244 23.5428 71.366 23.6396 71.3275C23.7452 71.2878 23.858 71.2706 23.9707 71.2773Z" fill="#222222"/>
<path d="M26.253 75.2666H29.6492V75.5621H29.4276C29.2574 75.5509 29.0894 75.6048 28.9576 75.7129C28.9029 75.764 28.86 75.8264 28.8319 75.8958C28.8037 75.9652 28.7912 76.04 28.7949 76.1147C28.8063 76.3422 28.8625 76.5652 28.9606 76.7708L30.6453 80.769L32.336 76.632C32.4353 76.4206 32.4972 76.1937 32.5192 75.9612C32.523 75.8974 32.506 75.8342 32.4708 75.7809C32.4356 75.7277 32.3842 75.6872 32.3242 75.6656C32.1188 75.6014 31.9035 75.5743 31.6887 75.5857V75.2904H34.0533V75.5857C33.911 75.5956 33.7709 75.6244 33.6365 75.6716C33.5331 75.711 33.4401 75.7737 33.3647 75.8547C33.2848 75.9433 33.2182 76.0428 33.1665 76.1502C33.1074 76.2655 33.0483 76.3985 32.9863 76.5493L30.4148 82.755H30.0926L27.5064 76.6467C27.4418 76.4853 27.3668 76.3283 27.2817 76.1768C27.2166 76.0656 27.1336 75.9659 27.0364 75.8813C26.941 75.8003 26.8305 75.739 26.7112 75.7011C26.5585 75.6506 26.401 75.6161 26.2412 75.5976L26.253 75.2666Z" fill="#222222"/>
<path d="M34.8691 78.2778H38.9569V79.4599H34.8691V78.2778Z" fill="#222222"/>
<path d="M42.2203 76.5968C43.0715 75.5762 43.8805 75.066 44.647 75.066C44.9014 75.0633 45.1541 75.1085 45.3919 75.1989C45.6262 75.2935 45.8305 75.4497 45.983 75.6511C46.171 75.8997 46.3058 76.1845 46.379 76.4873C46.4826 76.9139 46.5302 77.3519 46.5209 77.7906V80.8816C46.5159 81.1281 46.5337 81.3743 46.574 81.6175C46.5937 81.7665 46.6551 81.9069 46.7515 82.0223C46.8406 82.1188 46.9611 82.1805 47.0914 82.1967C47.2694 82.2229 47.4493 82.2346 47.6293 82.2321V82.5277H44.047V82.2321H44.1977C44.386 82.2379 44.5739 82.217 44.7564 82.1701C44.8767 82.1329 44.9811 82.0558 45.052 81.9515C45.1266 81.8254 45.1711 81.6838 45.1819 81.5377C45.1997 81.3625 45.2086 81.1437 45.2086 80.8816V77.9265C45.2421 77.4349 45.1538 76.9427 44.9514 76.4933C44.8639 76.3447 44.7361 76.224 44.5829 76.1451C44.4297 76.0661 44.2571 76.0322 44.0854 76.0472C43.4587 76.0472 42.8352 76.387 42.2115 77.0725V80.8905C42.1902 81.1958 42.2203 81.5024 42.3001 81.7978C42.3326 81.8711 42.3731 81.9405 42.4212 82.0046C42.4698 82.0656 42.5328 82.1133 42.6046 82.1435C42.6992 82.1815 42.7987 82.2063 42.9002 82.2174C43.0621 82.2361 43.2249 82.244 43.3878 82.2411V82.5366H39.8172V82.2411H39.9769C40.135 82.2454 40.2926 82.2245 40.4439 82.179C40.5652 82.1416 40.6697 82.0633 40.7395 81.9574C40.8177 81.8315 40.8682 81.6905 40.8872 81.5437C40.9161 81.3271 40.929 81.1088 40.9257 80.8905V78.2044C40.9421 77.6735 40.9213 77.1424 40.8636 76.6145C40.8471 76.4698 40.7851 76.3343 40.6862 76.2273C40.5926 76.1554 40.4763 76.1188 40.3583 76.124C40.1753 76.1324 39.9954 76.1724 39.8262 76.2422L39.708 75.9466L41.8893 75.0601H42.2292L42.2203 76.5968Z" fill="#222222"/>
<path d="M50.703 75.054V80.8696C50.703 81.1001 50.703 81.2893 50.7266 81.4341C50.736 81.5537 50.7599 81.6718 50.7974 81.7858C50.8218 81.8619 50.8644 81.9309 50.9216 81.9867C50.9736 82.0335 51.0302 82.0751 51.0902 82.1109C51.3217 82.1992 51.5704 82.2336 51.8173 82.2112V82.5068H48.3V82.2112C48.4461 82.2142 48.5923 82.2062 48.7373 82.1876C48.8339 82.1778 48.9281 82.1507 49.0151 82.1079C49.08 82.0757 49.1366 82.0292 49.1808 81.9718C49.2241 81.907 49.2628 81.8388 49.2959 81.7679C49.388 81.4749 49.4251 81.1674 49.4053 80.8607V78.0742C49.4053 77.616 49.4053 77.2556 49.3817 76.9896C49.3755 76.7901 49.3478 76.592 49.2989 76.3986C49.2901 76.3468 49.2699 76.2977 49.2397 76.2549C49.2095 76.2119 49.1702 76.1762 49.1245 76.1503C49.0312 76.111 48.9303 76.0927 48.8291 76.0971C48.6452 76.106 48.4643 76.1461 48.294 76.2153L48.1816 75.9198L50.3631 75.0332L50.703 75.054ZM50.0438 71.2774C50.1514 71.2767 50.258 71.2978 50.3571 71.3394C50.4517 71.3787 50.5372 71.437 50.6084 71.5108C50.6804 71.5834 50.7384 71.6686 50.7798 71.7619C50.8623 71.9616 50.8623 72.1858 50.7798 72.3855C50.7377 72.4803 50.6797 72.5674 50.6084 72.6426C50.5374 72.7173 50.4519 72.7766 50.3571 72.8169C50.2595 72.8582 50.1547 72.8798 50.0488 72.8804C49.9429 72.881 49.8379 72.8607 49.7399 72.8205C49.6418 72.7805 49.5526 72.7214 49.4774 72.6468C49.4023 72.572 49.3426 72.4832 49.3019 72.3855C49.259 72.2872 49.2369 72.181 49.2369 72.0737C49.2369 71.9665 49.259 71.8603 49.3019 71.7619C49.3412 71.6681 49.3984 71.5827 49.4704 71.5108C49.5431 71.4362 49.6308 71.3779 49.7276 71.3394C49.8279 71.2982 49.9354 71.277 50.0438 71.2774Z" fill="#222222"/>
<path d="M54.8141 76.5968C55.6635 75.5762 56.4723 75.066 57.2409 75.066C57.4943 75.0633 57.7459 75.1085 57.9827 75.1989C58.2164 75.2946 58.4205 75.4507 58.5739 75.6511C58.7609 75.9 58.8946 76.1846 58.9669 76.4873C59.0705 76.9139 59.1183 77.3519 59.1088 77.7906V80.8816C59.104 81.1281 59.1217 81.3743 59.1621 81.6175C59.1816 81.7665 59.243 81.9069 59.3394 82.0223C59.4286 82.1188 59.549 82.1805 59.6794 82.1967C59.8575 82.2229 60.0374 82.2346 60.2173 82.2321V82.5277H56.6379V82.2321H56.7886C56.9769 82.2379 57.165 82.217 57.3473 82.1701C57.4678 82.1329 57.572 82.0558 57.6428 81.9515C57.7187 81.8259 57.7634 81.6841 57.773 81.5377C57.7906 81.3625 57.7995 81.1437 57.7995 80.8816V77.9265C57.833 77.4349 57.7447 76.9427 57.5423 76.4933C57.4549 76.3447 57.327 76.224 57.1738 76.1451C57.0206 76.0661 56.848 76.0322 56.6763 76.0472C56.0497 76.0472 55.426 76.387 54.8053 77.0725V80.8905C54.7838 81.1956 54.8127 81.5021 54.891 81.7978C54.9235 81.8711 54.9642 81.9405 55.0123 82.0046C55.0613 82.0648 55.1242 82.1125 55.1955 82.1435C55.2901 82.1815 55.3896 82.2063 55.4911 82.2174C55.6518 82.2362 55.8139 82.2442 55.9759 82.2411V82.5366H52.4083V82.2411H52.5649C52.7229 82.2454 52.8805 82.2245 53.0318 82.179C53.1531 82.1416 53.2576 82.0633 53.3274 81.9574C53.4071 81.8323 53.4577 81.6908 53.4753 81.5437C53.5042 81.3271 53.5169 81.1088 53.5136 80.8905V78.2044C53.5301 77.6735 53.5094 77.1424 53.4515 76.6145C53.435 76.4698 53.373 76.3343 53.2743 76.2273C53.1805 76.1554 53.0643 76.1188 52.9462 76.124C52.7642 76.1321 52.5852 76.1721 52.4171 76.2422L52.2959 75.9466L54.4802 75.0601H54.8201L54.8141 76.5968Z" fill="#222222"/>
<path d="M62.7323 79.8651C62.3152 79.6729 61.9632 79.3635 61.7192 78.9746C61.4751 78.5857 61.3496 78.1343 61.3579 77.6752C61.3562 77.3262 61.4288 76.9807 61.5707 76.6617C61.7083 76.3463 61.9095 76.0625 62.1618 75.8284C62.4296 75.5857 62.739 75.3936 63.0751 75.261C63.558 75.0835 64.075 75.018 64.587 75.0691C65.099 75.1204 65.5926 75.2869 66.0308 75.5565H67.8279C67.8735 75.5581 67.9191 75.5631 67.9639 75.5712C67.9934 75.5712 68.0112 75.589 68.0141 75.6007L68.0379 75.6392C68.0764 75.718 68.0927 75.8059 68.085 75.8933C68.085 75.9732 68.085 76.0353 68.085 76.0855C68.0853 76.1069 68.0812 76.128 68.0732 76.1479C68.0651 76.1677 68.053 76.1857 68.0379 76.2007C67.9942 76.2329 67.9414 76.2504 67.887 76.2509C67.7808 76.2568 67.6741 76.2568 67.5679 76.2509H66.6278C66.9325 76.6742 67.0875 77.1867 67.0683 77.7077C67.0705 78.0328 67.0018 78.3545 66.8673 78.6505C66.7341 78.9485 66.5386 79.2145 66.2939 79.4307C66.0288 79.6612 65.7232 79.8407 65.3924 79.9595C65.0133 80.0956 64.6129 80.1626 64.2102 80.1576C63.8381 80.1547 63.4682 80.101 63.1105 79.998C62.9227 80.1436 62.7624 80.3218 62.6377 80.524C62.5682 80.6408 62.5277 80.7725 62.5195 80.9082C62.5171 80.9792 62.5335 81.0494 62.5668 81.1121C62.621 81.1871 62.701 81.2398 62.7913 81.2599C62.9631 81.3089 63.1394 81.3407 63.3175 81.3545C63.548 81.3781 63.8643 81.3957 64.2663 81.4046C64.8072 81.4195 65.2535 81.4372 65.6053 81.4519C65.8633 81.4595 66.1209 81.4813 66.3767 81.5169C66.6061 81.5437 66.8298 81.6076 67.0388 81.7061C67.2291 81.7929 67.4022 81.913 67.5501 82.0608C67.6892 82.2016 67.7996 82.3682 67.8752 82.5513C67.9499 82.7394 67.9881 82.94 67.9876 83.1423C67.9749 83.4649 67.8936 83.7811 67.7495 84.0699C67.6053 84.3588 67.4013 84.6137 67.1511 84.8179C66.2692 85.6064 65.1144 86.0199 63.9322 85.9703C63.5607 85.9698 63.1902 85.9303 62.8269 85.8521C62.4763 85.7831 62.1343 85.676 61.8072 85.533C61.5307 85.4183 61.2768 85.2564 61.0563 85.0542C60.9683 84.9821 60.8964 84.892 60.8454 84.7902C60.7945 84.6884 60.7658 84.577 60.7607 84.4633C60.7614 84.3812 60.7733 84.2996 60.7963 84.2209C60.8247 84.131 60.8613 84.0441 60.9056 83.9609C60.9655 83.8585 61.0317 83.7596 61.1036 83.6654C61.1864 83.5531 61.2839 83.426 61.3992 83.2782C61.4347 83.231 61.6948 82.9472 62.2032 82.4241C61.986 82.3078 61.7867 82.1605 61.612 81.9868C61.5014 81.8669 61.4402 81.7097 61.4405 81.5465C61.4418 81.4467 61.4558 81.3474 61.482 81.2509C61.5193 81.1246 61.5782 81.0056 61.6563 80.8993C61.7694 80.7382 61.897 80.588 62.0377 80.4502C62.2297 80.2965 62.4574 80.0985 62.7323 79.8651ZM62.6524 82.504C62.1519 83.0477 61.9018 83.5116 61.9018 83.8958C61.9038 83.9859 61.9244 84.0744 61.9619 84.1563C61.9997 84.2381 62.0536 84.3113 62.1203 84.3716C62.2916 84.5305 62.4925 84.654 62.7115 84.735C62.998 84.844 63.2953 84.9222 63.5983 84.9685C63.9492 85.024 64.304 85.0517 64.6595 85.0512C65.0768 85.0587 65.4934 85.0101 65.8979 84.9064C66.204 84.8309 66.4965 84.7072 66.7639 84.54C66.9674 84.4107 67.14 84.2383 67.2693 84.0347C67.3738 83.8669 67.431 83.6739 67.4348 83.4761C67.4382 83.3553 67.4087 83.2358 67.3491 83.1304C67.2726 83.021 67.1626 82.939 67.0358 82.897C66.8359 82.8233 66.6272 82.7756 66.4151 82.7552C66.0796 82.7156 65.7422 82.6929 65.4042 82.6871C64.8131 82.6724 64.284 82.6488 63.8318 82.6163C63.3795 82.5838 62.9746 82.5483 62.6524 82.5069V82.504ZM64.1096 75.4323C63.924 75.4311 63.7405 75.4705 63.5717 75.5476C63.3998 75.6267 63.2489 75.7452 63.1312 75.8933C62.9959 76.0697 62.8957 76.2703 62.8357 76.4843C62.7602 76.7586 62.7244 77.0423 62.7293 77.3265C62.7266 77.6586 62.7623 77.9898 62.8357 78.3137C62.8969 78.589 63.0029 78.8525 63.149 79.0937C63.2727 79.2995 63.4427 79.4736 63.6456 79.6021C63.8453 79.725 64.076 79.7886 64.3106 79.7852C64.5007 79.7869 64.689 79.7486 64.8633 79.6729C65.0342 79.5977 65.1835 79.4809 65.2978 79.3331C65.4332 79.1568 65.5335 78.9561 65.5934 78.7421C65.6655 78.4694 65.6993 78.1879 65.6939 77.9059C65.6961 77.5748 65.6605 77.2446 65.5875 76.9217C65.5294 76.6454 65.4298 76.3793 65.292 76.1327C65.1705 75.9214 65.0014 75.7413 64.7984 75.6067C64.5916 75.4807 64.3515 75.4198 64.1096 75.4323Z" fill="#222222"/>
</svg>
