<svg width="51" height="50" viewBox="0 0 51 50" fill="none" xmlns="http://www.w3.org/2000/svg">
<path d="M25.5 0C18.8696 0 12.5107 2.63392 7.82233 7.32233C3.13392 12.0107 0.5 18.3696 0.5 25C0.5 31.6304 3.13392 37.9892 7.82233 42.6776C12.5107 47.3661 18.8696 50 25.5 50C32.1304 50 38.4892 47.3661 43.1776 42.6776C47.8661 37.9892 50.5 31.6304 50.5 25C50.5 18.3696 47.8661 12.0107 43.1776 7.32233C38.4892 2.63392 32.1304 0 25.5 0Z" fill="#03A9F4"/>
<path d="M40.5 16.4C39.3975 16.8888 38.0012 17.3475 36.75 17.5C38.0225 16.745 40.0413 15.1725 40.5 13.75C39.3113 14.4488 37.1613 15.195 35.7588 15.465C34.6388 14.2775 33.0413 13.75 31.2713 13.75C27.8713 13.75 25.5 16.6313 25.5 20V22.5C20.5 22.5 15.625 18.6913 12.5913 15C12.0575 15.9013 11.7575 16.9563 11.7575 18.0713C11.7575 20.345 13.8463 22.6525 15.5 23.75C14.4913 23.7188 12.5812 22.9488 11.75 22.5C11.75 22.52 11.75 22.545 11.75 22.5713C11.75 25.53 13.8263 27.5388 16.64 28.0988C16.1263 28.24 15.5 28.75 13.09 28.75C13.8725 31.1688 17.8063 32.4475 20.5 32.5C18.3925 34.1338 14.635 35 11.75 35C11.2513 35 10.9812 35.0275 10.5 34.9713C13.2225 36.6963 17.025 37.5 20.5 37.5C31.8213 37.5 38 28.8525 38 20.7875C38 20.5225 37.9912 19.635 37.9775 19.375C39.1875 18.5225 39.6775 17.63 40.5 16.4Z" fill="white"/>
</svg>
