<svg width="187" height="32" viewBox="0 0 187 32" fill="none" xmlns="http://www.w3.org/2000/svg">
<path d="M10.6796 31.0001C7.24461 31.0001 4.70211 30.1826 3.05211 28.5476C1.41711 26.8976 0.599609 24.3551 0.599609 20.9201V10.5701C0.599609 7.10506 1.41711 4.55506 3.05211 2.92006C4.68711 1.27006 7.21461 0.460062 10.6346 0.490061H16.0796C18.8996 0.490061 21.0521 1.07506 22.5371 2.24506C24.0221 3.40006 24.8846 5.23006 25.1246 7.73506C25.2146 8.36506 25.0946 8.84506 24.7646 9.17506C24.4346 9.50506 23.9546 9.67006 23.3246 9.67006C22.1846 9.67006 21.5246 9.04006 21.3446 7.78006C21.1946 6.40006 20.7146 5.47006 19.9046 4.99006C19.1096 4.51006 17.8346 4.27006 16.0796 4.27006H10.6346C9.04461 4.25506 7.79211 4.43506 6.87711 4.81006C5.97711 5.18506 5.33211 5.83756 4.94211 6.76756C4.56711 7.68256 4.37961 8.95006 4.37961 10.5701V20.9201C4.37961 22.5251 4.56711 23.7851 4.94211 24.7001C5.33211 25.6151 5.98461 26.2676 6.89961 26.6576C7.81461 27.0326 9.07461 27.2201 10.6796 27.2201H16.0796C17.4746 27.2201 18.5621 27.0701 19.3421 26.7701C20.1371 26.4551 20.6921 25.9076 21.0071 25.1276C21.3221 24.3476 21.4796 23.2451 21.4796 21.8201V19.7051L17.9696 19.6601C16.7096 19.6601 16.0796 19.0301 16.0796 17.7701C16.0796 16.5101 16.7096 15.8801 17.9696 15.8801L23.3696 15.9251C24.6296 15.9251 25.2596 16.5551 25.2596 17.8151V21.8201C25.2596 25.0151 24.5171 27.3476 23.0321 28.8176C21.5471 30.2726 19.2296 31.0001 16.0796 31.0001H10.6796Z" fill="url(#paint0_linear_101_3)"/>
<path d="M40.728 31.0001C38.163 31.0001 36.1605 30.4826 34.7205 29.4476C33.2955 28.4126 32.403 26.8151 32.043 24.6551C31.983 23.9951 32.118 23.5001 32.448 23.1701C32.778 22.8401 33.258 22.6751 33.888 22.6751C34.518 22.6751 34.9755 22.8251 35.2605 23.1251C35.5605 23.4251 35.763 23.8901 35.868 24.5201C36.093 25.5551 36.573 26.2676 37.308 26.6576C38.058 27.0326 39.198 27.2201 40.728 27.2201H47.208C49.143 27.2201 50.4555 26.8751 51.1455 26.1851C51.8505 25.4801 52.203 24.1751 52.203 22.2701C52.203 20.3351 51.843 19.0151 51.123 18.3101C50.403 17.5901 49.098 17.2301 47.208 17.2301H41.628C38.793 17.2301 36.6855 16.5401 35.3055 15.1601C33.9405 13.7651 33.258 11.6501 33.258 8.81506C33.258 5.99506 33.933 3.90256 35.283 2.53756C36.648 1.17256 38.748 0.490061 41.583 0.490061H46.938C49.323 0.490061 51.1905 0.977561 52.5405 1.95256C53.9055 2.92756 54.768 4.42006 55.128 6.43006C55.218 7.07506 55.098 7.57006 54.768 7.91506C54.438 8.24506 53.943 8.41006 53.283 8.41006C52.683 8.41006 52.233 8.25256 51.933 7.93756C51.633 7.62256 51.438 7.16506 51.348 6.56506C51.108 5.68006 50.6505 5.08006 49.9755 4.76506C49.3005 4.43506 48.288 4.27006 46.938 4.27006H41.583C39.783 4.27006 38.5755 4.59256 37.9605 5.23756C37.3455 5.86756 37.038 7.06006 37.038 8.81506C37.038 10.5851 37.353 11.8001 37.983 12.4601C38.613 13.1201 39.828 13.4501 41.628 13.4501H47.208C50.163 13.4501 52.3605 14.1701 53.8005 15.6101C55.2555 17.0501 55.983 19.2701 55.983 22.2701C55.983 25.2551 55.263 27.4601 53.823 28.8851C52.383 30.2951 50.178 31.0001 47.208 31.0001H40.728Z" fill="url(#paint1_linear_101_3)"/>
<path d="M71.8852 31.0001C69.3202 31.0001 67.3177 30.4826 65.8777 29.4476C64.4527 28.4126 63.5602 26.8151 63.2002 24.6551C63.1402 23.9951 63.2752 23.5001 63.6052 23.1701C63.9352 22.8401 64.4152 22.6751 65.0452 22.6751C65.6752 22.6751 66.1327 22.8251 66.4177 23.1251C66.7177 23.4251 66.9202 23.8901 67.0252 24.5201C67.2502 25.5551 67.7302 26.2676 68.4652 26.6576C69.2152 27.0326 70.3552 27.2201 71.8852 27.2201H78.3652C80.3002 27.2201 81.6127 26.8751 82.3027 26.1851C83.0077 25.4801 83.3602 24.1751 83.3602 22.2701C83.3602 20.3351 83.0002 19.0151 82.2802 18.3101C81.5602 17.5901 80.2552 17.2301 78.3652 17.2301H72.7852C69.9502 17.2301 67.8427 16.5401 66.4627 15.1601C65.0977 13.7651 64.4152 11.6501 64.4152 8.81506C64.4152 5.99506 65.0902 3.90256 66.4402 2.53756C67.8052 1.17256 69.9052 0.490061 72.7402 0.490061H78.0952C80.4802 0.490061 82.3477 0.977561 83.6977 1.95256C85.0627 2.92756 85.9252 4.42006 86.2852 6.43006C86.3752 7.07506 86.2552 7.57006 85.9252 7.91506C85.5952 8.24506 85.1002 8.41006 84.4402 8.41006C83.8402 8.41006 83.3902 8.25256 83.0902 7.93756C82.7902 7.62256 82.5952 7.16506 82.5052 6.56506C82.2652 5.68006 81.8077 5.08006 81.1327 4.76506C80.4577 4.43506 79.4452 4.27006 78.0952 4.27006H72.7402C70.9402 4.27006 69.7327 4.59256 69.1177 5.23756C68.5027 5.86756 68.1952 7.06006 68.1952 8.81506C68.1952 10.5851 68.5102 11.8001 69.1402 12.4601C69.7702 13.1201 70.9852 13.4501 72.7852 13.4501H78.3652C81.3202 13.4501 83.5177 14.1701 84.9577 15.6101C86.4127 17.0501 87.1402 19.2701 87.1402 22.2701C87.1402 25.2551 86.4202 27.4601 84.9802 28.8851C83.5402 30.2951 81.3352 31.0001 78.3652 31.0001H71.8852Z" fill="url(#paint2_linear_101_3)"/>
<path d="M111.455 31.0001C110.195 31.0001 109.565 30.3701 109.565 29.1101V2.38006C109.565 1.12006 110.195 0.490061 111.455 0.490061C112.715 0.490061 113.345 1.12006 113.345 2.38006V27.2201H125.81C127.07 27.2201 127.7 27.8501 127.7 29.1101C127.7 30.3701 127.07 31.0001 125.81 31.0001H111.455Z" fill="url(#paint3_linear_101_3)"/>
<path d="M132.471 30.8201C131.271 30.3551 130.911 29.5301 131.391 28.3451L142.101 1.97506C142.551 0.985061 143.256 0.490061 144.216 0.490061H144.306C145.281 0.535062 145.941 1.03006 146.286 1.97506L157.176 28.3451C157.656 29.5301 157.311 30.3551 156.141 30.8201C154.956 31.2851 154.131 30.9401 153.666 29.7851L151.236 23.8901H137.219L134.901 29.7851C134.436 30.9551 133.626 31.3001 132.471 30.8201ZM138.704 20.1101H149.684L144.081 6.47506L138.704 20.1101Z" fill="url(#paint4_linear_101_3)"/>
<path d="M165.772 31.0001C164.512 31.0001 163.882 30.3701 163.882 29.1101V2.38006C163.882 1.12006 164.512 0.490061 165.772 0.490061H177.517C179.902 0.490061 181.732 1.12006 183.007 2.38006C184.297 3.64006 184.942 5.44006 184.942 7.78006V8.99506C184.942 11.0201 184.304 12.5876 183.029 13.6976C185.414 15.0326 186.607 17.4701 186.607 21.0101V22.5401C186.607 25.3001 185.872 27.4001 184.402 28.8401C182.947 30.2801 180.847 31.0001 178.102 31.0001H165.772ZM167.662 27.2201H178.102C179.797 27.2201 181.004 26.8601 181.724 26.1401C182.459 25.4051 182.827 24.2051 182.827 22.5401V21.0101C182.827 19.3451 182.474 18.1601 181.769 17.4551C181.064 16.7351 179.842 16.3751 178.102 16.3751H167.662V27.2201ZM167.662 12.5951H178.327C179.422 12.5951 180.164 12.2576 180.554 11.5826C180.959 10.9076 181.162 10.0451 181.162 8.99506V7.78006C181.162 6.47506 180.892 5.56756 180.352 5.05756C179.812 4.53256 178.867 4.27006 177.517 4.27006H167.662V12.5951Z" fill="url(#paint5_linear_101_3)"/>
<defs>
<linearGradient id="paint0_linear_101_3" x1="-3" y1="14" x2="190" y2="14" gradientUnits="userSpaceOnUse">
<stop stop-color="#1569DF"/>
<stop offset="1" stop-color="#00C0FD"/>
</linearGradient>
<linearGradient id="paint1_linear_101_3" x1="-3" y1="14" x2="190" y2="14" gradientUnits="userSpaceOnUse">
<stop stop-color="#1569DF"/>
<stop offset="1" stop-color="#00C0FD"/>
</linearGradient>
<linearGradient id="paint2_linear_101_3" x1="-3" y1="14" x2="190" y2="14" gradientUnits="userSpaceOnUse">
<stop stop-color="#1569DF"/>
<stop offset="1" stop-color="#00C0FD"/>
</linearGradient>
<linearGradient id="paint3_linear_101_3" x1="-3" y1="14" x2="190" y2="14" gradientUnits="userSpaceOnUse">
<stop stop-color="#1569DF"/>
<stop offset="1" stop-color="#00C0FD"/>
</linearGradient>
<linearGradient id="paint4_linear_101_3" x1="-3" y1="14" x2="190" y2="14" gradientUnits="userSpaceOnUse">
<stop stop-color="#1569DF"/>
<stop offset="1" stop-color="#00C0FD"/>
</linearGradient>
<linearGradient id="paint5_linear_101_3" x1="-3" y1="14" x2="190" y2="14" gradientUnits="userSpaceOnUse">
<stop stop-color="#1569DF"/>
<stop offset="1" stop-color="#00C0FD"/>
</linearGradient>
</defs>
</svg>
